<svg xmlns="http://www.w3.org/2000/svg" enable-background="new 0 0 612 792" height="792px" id="&#22270;&#23618;_2" version="1.1" viewBox="0 0 612 792" width="612px" x="0px" y="0px" xml:space="preserve">
<path d="M395.8,447.9c2.6-0.3,5.1-1,7.3-2.4c0,0,0,0,0.1,0c0,0,0-0.1,0-0.1c0.1-1.7-0.7-3.1-1.9-4.4  c-4.8-5-9.3-10.3-10-17.6c0,0,0,0,0,0c0,0,0,0,0,0.1c0,0.1,0,0.2,0,0.3c0.3,7.2-0.6,13.8-6.1,19.3c-2,2,0.1,3.3,1.5,4.8  c1.1,1.2,4.6,0.4,3.3,3.7c0,0,0,0.1,0,0.1c0.7,0.3,1.3,0.5,2,0.8C392,449.8,392.9,448.2,395.8,447.9z" fill="#FFFFFF" />
</svg>