<svg xmlns="http://www.w3.org/2000/svg" enable-background="new 0 0 612 792" height="792px" id="&#22270;&#23618;_2" version="1.1" viewBox="0 0 612 792" width="612px" x="0px" y="0px" xml:space="preserve">
<path d="M347.8,382.4c-0.7,2.9,1,3.5,2.9,3.9c0.2,0,0.4-0.1,0.7-0.1c-2.1-4-1.9-8.2-0.7-12.5c1-3.9,2.3-7.6,4-11.2  c3.8-8,7.7-16.2,11.4-24.3c0.5-1.2,2-2.8-0.2-3.7c-1.5-0.6-2.9,0.3-3.6,1.9c-1.4,3.4-2.7,6.8-4.1,10.2c-0.3,0.9-1.1,2.6-1.3,2.5  c-6.7-2.1-3.5,3.8-4.3,5.8c-1.3,3.2-1.1,6.8-1.6,10.3c-1-0.8-1-2-0.9-3.3c0.2-8.6,0.5-17.3,0.7-25.9c0.1-4.9,0.4-9.7,0.5-14.5  c0.1-1.9-0.4-3.4-2.7-3.3c-2,0.1-3.1,1.2-3.1,3.2c0,1.3,0.2,2.7,0.3,4c0.5,8,0.9,15.9,1.6,23.9c0.2,2.5-0.7,4.1-2.9,5.1  c0.3-0.1,0.5-0.1,0.7-0.2c-0.3,0.1-0.5,0.2-0.8,0.3c-1.3,6.5,2.5,12.4,2.1,19c-1.7-1.2-2-2.9-2.6-4.4c-4.5-11.6-9-23.2-13.6-34.8  c-1.8-4.6-4-9.1-6.1-13.6c-0.5-1-1.2-2.3-2.6-1.6c-1.6,0.7-0.7,2-0.2,3c1,2.2,2,4.6,3.4,6.6c5.2,7.5,5.3,16.8,9.2,24.7  c4.2,8.3,8.3,16.7,12.4,25C347.3,379.6,348.2,380.9,347.8,382.4z" fill="#FFFFFF" />
</svg>