<svg xmlns="http://www.w3.org/2000/svg" enable-background="new 0 0 612 792" height="792px" id="&#22270;&#23618;_2" version="1.1" viewBox="0 0 612 792" width="612px" x="0px" y="0px" xml:space="preserve">
<path d="M488.9,474.5c0.1-1.9,0.3-3.8-1.7-4.9c-4.1-2.2-8.3-3.6-12.7-0.6c-2.4,1.8-4.2,4.1-6.4,6.1  c0,0,0,0.1,0.1,0.1c-4.4,7.6-9,15.2-13.3,22.9c-2.6,4.7-7.3,3.7-11.8,5.6c0.7-2.4,2.3-2.5,3.4-3.1c1.9-1.1,3.7-1.8,0.1-3.1  c-2-0.7-0.3-1.8,0.2-2.6c3.3-4.6,6.6-9.2,9.9-13.8c0.8-1.2,3.4-2.3,1.2-4c-1.8-1.4-4.3-1.3-5.6,1.1c-1.3,2.3-2.3,4.8-3.4,7.2  c-2.3,5.3-5,10.4-8.5,15.1c-1.3-0.7-0.5-1.5-0.5-2.2c0-1,0.1-2.2-1.3-2.1c-1,0-1.3,0.9-1.4,1.8c-0.1,0.8-0.2,1.7-0.1,2.5  c0.6,4.1-1.5,5-5.2,5.2c-9.3,0.7-18.5,1.7-27.8,2.7c-0.6,0-1.2,0.6-1.7,0.9c-0.3-0.4-0.5-0.9-0.8-1.3c-0.3,0.4-0.6,0.9-0.8,1.5  c-0.2,2.2,0.3,4.1,2.2,5.4c0.4,0.1,0.8,0.2,1.2,0.3c-0.1-0.2-0.1-0.4-0.2-0.6c0.4-1.6,1.5-2.1,3-1.7c1.2,0.3,1.1,1.5,1.2,2.4  c0.2,3.6,1.1,7,3.2,10.1c1.9,2.7,0,5.3-1.2,7.8c0,0-0.1,0-0.1,0c0,0.1,0,0.1,0,0.2c4.6-1.9,9.4-3.5,13.8-5.8  c6.2-3.2,11.2-7.7,13-14.9c1.4-5.6,4.6-7.7,10.4-7.3c2.4,0.2,3,1,1.8,3.1c-5,8.4-10.1,16.6-18.5,22.5c-13.9,9.7-27.8,19.3-40.8,30  c-0.2,0.2-0.4,0.3-0.6,0.5c-1,2-0.9,4.1-0.9,6.3c-0.2,14.4-0.3,28.8-0.4,43.2c0,0,0,0.1,0.1,0.1c0.1,0.1,0.3,0.1,0.4,0.2  c14.3-14.4,29.4-28.2,44.7-41.5c10.1-8.7,16.3-20.5,23.5-31.4c5-7.7,10-15.3,16.7-21.6c3.9-3.6,8.1-6.2,13.6-6.3  c0,0,0.1-0.1,0.1-0.1C488.5,498.5,488,486.4,488.9,474.5z" fill="#FFFFFF" />
</svg>