<svg xmlns="http://www.w3.org/2000/svg" enable-background="new 0 0 612 792" height="792px" id="&#22270;&#23618;_2" version="1.1" viewBox="0 0 612 792" width="612px" x="0px" y="0px" xml:space="preserve">
<path d="M452.2,457.3C452.2,457.3,452.2,457.3,452.2,457.3c-9.1-3.4-19.2-4.3-27-11c-1.1-0.9-2.2,0.3-3,1.1v0  c2.6,3.8-0.7,6.3-2.5,8.6c-2.2,2.8-3.8-1.1-5.8-1.3c-0.3,1-0.9,1.4-1.8,0.9c-5.4-3-11.2-2.5-17-1.9c-1.1-0.2-2.3-0.3-3.1-1.3  c-0.7-0.3-1.3-0.5-2-0.8c0,0,0,0,0,0c-2.8-0.1-5.1,1.4-7.4,2.6c-0.2,0.1-0.4,0.2-0.6,0.3c0.4,1.2,1.2,1.5,2.3,1.1  c3.5-1.4,7.2-1.1,10.8-1.1c0,0,0-0.1,0.1-0.1c5.1-0.7,8.8,0.6,12.3,5.1c3.8,5,4.3,4.8-1,7.8c-0.1,0-0.1,0.1-0.2,0.1  c5.4-0.1,10.8-0.9,16.7-2c-2-2.1-4.4-3.6-2.4-7.3c2.4,9.1,8.9,7.7,15,6.8c2.7-0.4,5.4-1.4,8.1-2.3c1.1-0.4,2.1-1.1,3.3-0.6  C452,463.9,452.3,460.9,452.2,457.3z" fill="#FFFFFF" />
</svg>