<svg xmlns="http://www.w3.org/2000/svg" enable-background="new 0 0 612 792" height="792px" id="&#22270;&#23618;_2" version="1.1" viewBox="0 0 612 792" width="612px" x="0px" y="0px" xml:space="preserve">
<path d="M361.8,303.5c0.8-2.7,2.3-3.9,4.8-5.1c8.7-4,17.8-5.1,27.1-5.6c2-0.1,3.9-0.4,5.1-2.4  c1.9-3.3,4.4-6.3,5.7-9.8c0,0,0.1-0.1,0.1-0.1c2.6-4.1,6.9-7.4,5.3-13.2c-1.9-7-3.5-14.2-5.6-21.2c-1.4-4.4-0.4-7.8,2.2-11.5  c10.4-14.7,20.5-29.5,30.8-44.2c1.6-2.4,2.1-4.6,1.4-7.5c-1.7-6.7-3.1-13.6-4.6-20.4c-3.1-13.8-6.2-27.6-9.4-41.4  c-0.3-1.4-0.1-4-2.6-3.3c-3.5,0.9-7.3,1.9-7.5,6.7c-0.1,2.4-0.2,4.7-0.6,7c-2.1,12.9-1.3,26.2-5.5,38.9  c-7.8,23.5-15.6,47.1-23.4,70.6c-0.9,2.6-2.1,5.3-0.3,8.1c2.5,3.8,4,8.1,7.1,11.4c5.4,8,6.3,16.8,4.2,26.1c-0.3,1.2,0.3,3.1-1.3,3.4  c-3.5,0.8-7.8,2.5-10.6,0.1c-4.4-3.8-8.3-2.5-12.7-0.9c-15.1,5.5-15.2,5.5-15.2,21.7c0,4.2,0.2,8.4,2.4,12.3  C359.1,316.5,359.9,309.9,361.8,303.5z" fill="#FFFFFF" />
</svg>