<svg xmlns="http://www.w3.org/2000/svg" enable-background="new 0 0 612 792" height="792px" id="&#22270;&#23618;_2" version="1.1" viewBox="0 0 612 792" width="612px" x="0px" y="0px" xml:space="preserve">
<path d="M225.7,451.3c-2.1-1.6-3.8-3.6-6.6-3.8c2.1,2.7,2.3,5.7,2.1,8.9c0,0.1,0,0.2,0,0.2  c0.9,5.4,1.4,10.8,4.5,15.6c1,1.7,1.7,4,0.4,6.1c3.1,0.8,4.6-1.7,6.4-3.6c2.3,3.1-3.1,4-1.3,6.7c0,0,0.1,0,0.1,0  c0,0-0.1-0.1-0.1-0.1c0.4-0.2,0.9-0.7,1.3-0.6c8.3,1.7,15.9-1.3,23.7-3.1c0,0,0,0,0.1,0c0,0,0,0,0,0c1.8-2.8,5.2-1.9,7.6-3.3  c-2.2-1.9-5.3-0.2-7.5-1.9l0,0c-2.7-0.7-5.5-1.3-8.2-2c-0.1,0-0.2,0-0.3,0c-4.9-0.1-9.8,0-14.7-0.2c-3.4-0.1-7.3-4.9-7.7-9.2  c-0.3-3.7,3-3,4.9-3.7c3.1-1.2,3-2.7,1.1-4.8c-1-1.1-2.2-2-3.3-3c0,0-0.1,0-0.1,0C228.5,451.7,228.1,453.1,225.7,451.3z" fill="#FFFFFF" />
</svg>