<svg xmlns="http://www.w3.org/2000/svg" enable-background="new 0 0 612 792" height="792px" id="&#22270;&#23618;_2" version="1.1" viewBox="0 0 612 792" width="612px" x="0px" y="0px" xml:space="preserve">
<path d="M403.2,445.4c0,0,0,0.1,0,0.1c3,0.5,4.3,3.4,6.7,4.7c2,0.5,3.7,0,5.1-1.6v0c0.3-0.4,0.7-0.8,1.1-1.2  c-2.7-6-6-11.7-8-17.9c-3.4-3-8.2-2.6-11.9-5c0-0.1-0.1-0.1-0.1-0.2c0,0,0,0.1,0,0.1c-2.3-2.5-4.4-5.2-3-9c-2.8,2.1-1.6,5.3-1.8,8  c0.7,7.3,5.2,12.6,10,17.6C402.5,442.3,403.3,443.7,403.2,445.4z" fill="#FFFFFF" />
</svg>