<svg xmlns="http://www.w3.org/2000/svg" enable-background="new 0 0 612 792" height="792px" id="&#22270;&#23618;_2" version="1.1" viewBox="0 0 612 792" width="612px" x="0px" y="0px" xml:space="preserve">
<path d="M219.1,447.5c0,0-0.1,0-0.1,0c-3.5-1.6-6.8-3.4-10.4-4.6c-3-1-4.1-2.4-3.4-5.4c0.3-0.3,0.6-0.5,0.9-0.6  c2.2-1.1,5.7,0.7,6.6-2.2c1.1-3.4-1-6.7-1.8-10c-1.2-5.1-0.6-10.2-0.6-15.3c0-1.1,0.8-1.8,1.8-2v0l0,0c-2.7-1.6-2.8,0.4-2.9,2.1  c-0.6,8.6-2.8,16.6-7.6,23.8c-0.7,1.1-1.7,2.5-0.1,3.4c4.1,2.3,2.7,5.6,1.8,8.7c-0.9,3.2-2.9,6.3-2.9,9.4c0,2.7-5.2,4.8-1.3,7.1  c2.4,1.5,6.1,0.8,9.2,0c0.3-0.1,0.6-0.3,0.9-0.5c-2.4,0-4.9,0-7.3,0c0-0.2,0-0.4,0-0.5c3.7-0.5,7.4-1.1,11.2-1.4  c1.5-0.1,3.6-1.2,4.6,0.4c1.1,1.7-0.1,3.5-1.2,5c-0.4,0.5-0.8,0.9-1.2,1.4c0,0.1,0,0.1,0,0.2c-0.1,2.2-1.4,3-3.5,3  c-1.5-0.1-3.1-0.2-4.4,0.8c-0.1,0-0.2,0-0.3,0c-1.7,3.4,0.4,3.9,3,4c0,0.1,0.1,0.1,0.1,0.2c-0.1,2.8,0.4,5,3.8,5.1  c0-0.1,0-0.1,0-0.2c4.7-0.7,6.1-3.1,5.3-8c-0.9-5-0.1-10.2,1.8-15.1c0,0.1,0,0.2,0.1,0.3c0-0.1,0-0.2,0-0.2  C221.4,453.2,221.2,450.2,219.1,447.5z" fill="#FFFFFF" />
</svg>