<svg xmlns="http://www.w3.org/2000/svg" enable-background="new 0 0 612 792" height="792px" id="&#22270;&#23618;_2" version="1.1" viewBox="0 0 612 792" width="612px" x="0px" y="0px" xml:space="preserve">
<path d="M303.2,527.2L303.2,527.2c-1-0.8-2.2-0.8-3.4-0.9c-0.2,0-0.5,0-0.7,0c-4.3,0.3-5.5,4.1-5.3,6.7  c0.2,3.1,3.8,0.7,5.8,1.3c0.2,0,0.3,0,0.5,0h0c2.6-2.7,5.4-2.9,9-1.6c6.2,2.2,12.6,3.9,18.9,5.8l0,0c8,1.6,15.9,3.3,23.9,4.8  c2.1,0.3,3.2,1.4,4.3,2.9c0-0.1,0-0.1,0-0.2c0.3-2.2,0.6-4.4,0.9-6.6C339.1,535.5,321,532.2,303.2,527.2z" fill="#FFFFFF" />
</svg>