<svg xmlns="http://www.w3.org/2000/svg" enable-background="new 0 0 612 792" height="792px" id="&#22270;&#23618;_2" version="1.1" viewBox="0 0 612 792" width="612px" x="0px" y="0px" xml:space="preserve">
<path d="M447.3,505.4c-5.8-0.4-9,1.7-10.4,7.3c-1.8,7.2-6.8,11.7-13,14.9c-4.4,2.3-9.2,3.9-13.8,5.8  c0-0.1,0-0.1,0-0.2c-11.4,2.7-22.7,5.4-34.2,7.9c-6.6,1.4-12.8,4.5-19.7,4.9c0,0.1,0,0.1,0,0.2c-1.1-1.5-2.2-2.6-4.3-2.9  c-8-1.5-15.9-3.2-23.9-4.8l0,0l0,0c-9.5,0.2-18.6-2.6-27.9-4.2l0,0h0c-0.2,0-0.3,0-0.5,0c-2-0.6-5.6,1.8-5.8-1.3  c-0.2-2.6,1-6.4,5.3-6.7c0.2,0,0.5,0,0.7,0c0-0.1,0.1-0.2,0.1-0.2c0.6-1.4,0.5-2.9,1.1-4.3c4.1-10,7.6-20.2,11.6-30.3  c1-2.6,2.2-5.2-0.4-7.6c-0.2,0.3-0.3,0.5-0.4,0.8c-4.7,1.7-9-1.2-13.6-1.4h-0.1c-2.7,0.3-5.3-0.6-7.8-1.4  c-5.3-1.8-10.7-1.4-16.2-0.5c-0.4-0.7-0.8-1.3-1.2-2c1.1-6.1,6-3.6,9.4-4.2c-8.1,0.3-10.8-5.3-12.4-12c-0.1-0.3-0.4-0.5-0.6-0.8  c0,0-0.1,0-0.1,0c-4.2-0.3-8.1,0.2-12.4-1.7c-4.9-2.2-10.4-5.6-16.4-2.1c-1.7,1-3.7,1.5-5.6,2.1c-2.3,0.8-5.2,0.9-4.6,4.6  c0.5,3.6,3.4,2.7,5.7,3.3c3.9,1,8.4-0.8,12,1.8c0.1,0,0.2,0,0.3,0c2.7,0.7,5.5,1.3,8.2,2l0,0c2.2,1.7,5.3,0,7.5,1.9  c-2.4,1.4-5.8,0.5-7.6,3.3c0,0,0,0,0,0c0,0,0,0-0.1,0c-7.8,1.8-15.4,4.8-23.7,3.1c-0.4-0.1-0.9,0.4-1.3,0.6c0,0,0.1,0.1,0.1,0.1  c2.2,3.3,5.1,5.9,7.9,8.7c3.9,3.8,3.7,5.1-0.8,8.4c-1,1.1-2.9,1-3.4,3c10.4,2.6,20.8,5.3,31.2,7.9c1.4,0.3,3.2-0.2,3.6,1.9  c0,0,0,0,0,0c-2.7-0.2-5,1.1-7.5,1.7c-12.6,3.2-25.1,7.8-38.4,3.5l0,0h0c-3.9,0.1-6.7-1.8-8.7-5.2c0,0,0,0,0,0c0,0-0.1,0-0.1,0  c-2.4-5-9.6-7.4-8.1-14.6c0.5-2.5-1.4-2-2.8-2.1c-5.3-0.5-10.6,0.8-15.8-1.1c-0.1,0-0.2,0-0.3,0c-1-0.3-2-0.6-3-0.9  c0,0,0-0.1,0.1-0.1c-0.1,0-0.1,0-0.2,0c-0.5-0.1-1-0.1-1.5-0.2c-2.8-1-6.3-1.4-6.9-4.8c-0.5-3.1,2.7-4.2,4.6-5.8  c0.4-0.4,0.6-0.9,0.9-1.3l0,0c-2.6-0.1-5.3-0.1-7.9-0.2c0,0,0-0.1,0.1-0.1c-0.1,0-0.1,0.1-0.2,0.1c-2.9,0.1-6.2,1-6-3.8  c0,0,0,0,0-0.1c-3.2-3.9-7.1-2.1-10.2-0.5c-10.3,5.1-20.5,10.7-30.1,17.1c-1.7,1.1-3.4,2.2-3.7,4.4h0c3.5-2.9,7.4-1.3,11-0.6  c14.5,3.1,28.6,7.7,42.4,13.1c15.9,6.2,31.7,13.1,48.1,17.9c20.1,5.9,40.6,10.2,61.3,13.6c22,3.7,43.9,7.5,65.9,11.1  c10,1.7,19.8,4.2,29.9,5.7c2.5,0.4,5.3,0.6,7.1,2.9c13-10.7,26.9-20.4,40.8-30c8.4-5.9,13.5-14.1,18.5-22.5  C450.3,506.4,449.7,505.6,447.3,505.4z" fill="#FFFFFF" />
</svg>