<svg xmlns="http://www.w3.org/2000/svg" enable-background="new 0 0 612 792" height="792px" id="&#22270;&#23618;_2" version="1.1" viewBox="0 0 612 792" width="612px" x="0px" y="0px" xml:space="preserve">
<path d="M308.9,377.7c6.3,22.6,11.7,45.4,16.2,68.4c0.3,1.6-0.3,3.5,2,4.1c0.5-1.7,1.1-3.4,1.5-5.2  c1.5-4.5,1.7-10.2,8.7-9.9c0,0,0.1-0.5,0.1-0.7c-0.9-2.2-4.6,1-4.6-2.3c0-3.1,1.8-5,6.1-5.3c-6.6-1.7-2.1-5.6-2.8-8.4c0,0,0,0,0-0.1  c-0.9-1.4-2.1-2.6-2.8-4c-6.5-13.7-12.6-27.7-20.4-40.8c-2.1-3.4-3.5-4.3-6.6-2.3c-0.1,0-0.1,0.1-0.2,0.1  C307.1,373.4,308.3,375.5,308.9,377.7z" fill="#FFFFFF" />
</svg>