<svg xmlns="http://www.w3.org/2000/svg" enable-background="new 0 0 612 792" height="792px" id="&#22270;&#23618;_2" version="1.1" viewBox="0 0 612 792" width="612px" x="0px" y="0px" xml:space="preserve">
<path d="M270.7,421.9c-1.6,0.6-2.3-0.2-2.6-1.7c-0.4,0.1-0.8,0.1-1.2,0.2c-0.8,2.5-4.3,2.3-4.9,5c0,0,0,0,0,0  c0,0,0,0.1,0,0.1c0.7,0.3,1.4,0.6,2.1,0.9c2.4-1.8,5.2-0.8,7.1,0.2c3.6,2,6.7,2.2,9.9-0.3c0,0.1-0.1,0.2-0.1,0.3  c0,0,0.1-0.1,0.1-0.1c0.8-1.7,1.6-3.5,2.4-5.2c0-0.1-0.1-0.3-0.1-0.4c-0.9-3.1-3.7-2.3-6-2.6c-0.1,0-0.2,0-0.3,0  C275.5,420.3,273.1,421.1,270.7,421.9z" fill="#FFFFFF" />
</svg>