<svg xmlns="http://www.w3.org/2000/svg" enable-background="new 0 0 612 792" height="792px" id="&#22270;&#23618;_2" version="1.1" viewBox="0 0 612 792" width="612px" x="0px" y="0px" xml:space="preserve">
<path d="M355,398.1c-0.2-0.2-0.4-0.4-0.6-0.7c-1,0-2,0.3-3,0.4c-0.1,0.4-0.1,0.8-0.2,1.3c-0.8,0.2-1.7,0.1-2.2,1.1  c0,0.1,0,0.1,0.1,0.2c2,7.9,2.1,16.1,2.9,24.2c2.2,22.6,3.8,45.3,4.9,68c0.1,1.3,0.1,2.7,0.1,4c-0.4,14,0.8,27.9,1.1,41.9  c0,0.1,0,0.1,0,0.2c0-0.1,0-0.1,0.1-0.2c11.7-2.6,23.1-6.6,34.6-10c1.8-0.5,3.6-0.8,5.3-1.1c0,0,0,0,0,0c0-0.1,0.1-0.1,0.1-0.1  c8.4-1.1,7.5-6.4,6-12.1c-0.4-0.1-0.7-0.3-1.2-0.3c-1.9-1.3-2.4-3.2-2.2-5.4c0.2-0.6,0.5-1.1,0.8-1.5c-3.5-6-5.5-12.7-7.1-19.3  c-1.4-5.6-5.1-10.3-5.4-16.2c0.1,0,0.1-0.1,0.2-0.1c-0.1,0-0.2,0-0.3,0c-0.9-0.9-1.1-1.9-1-3.1c-3.1-2.9-4.2-7.1-5.8-11h0l0,0  c-0.3-0.7-0.7-1.2-0.9-1.9c0,0,0,0-0.1,0c-7.6-19.1-14.2-38.7-24-57c-0.1-0.1-0.2-0.3-0.3-0.4c0,0.1,0,0.1,0,0.2  C356.3,398.8,355.6,398.5,355,398.1z" fill="#FFFFFF" />
</svg>