<svg xmlns="http://www.w3.org/2000/svg" enable-background="new 0 0 612 792" height="792px" id="&#22270;&#23618;_2" version="1.1" viewBox="0 0 612 792" width="612px" x="0px" y="0px" xml:space="preserve">
<path d="M243.7,432.2c4.1-0.6,8.6-1.6,11.4,3c1.1-2.7-1.9-3.9-2.2-6c-0.4-2.4-3-5.2,2.1-6.1c2-0.2,0.7-3.1,0.9-4.7  c-2.6-0.7-5-2.2-7.8-2c0,0,0-0.1,0.1-0.1c-0.1,0-0.1,0.1-0.2,0.1c-0.3,0-0.5,0-0.8,0c-1.1,2.8-4.2,1.5-6,2.9h0l0,0  c-0.3,1.6-1.6,1.9-3,2c0,0,0,0-0.1,0c0,0,0,0.1,0.1,0.1c2.2,1.7,1.6,3.2-0.2,4.5c2,0.8,2,2.6,2.1,4.4c0.3,2.9-0.5,5.8,0.7,8.6l0,0  c0.4-0.3,0.8-0.6,1.2-0.9C242.9,436.1,240.3,432.8,243.7,432.2z" fill="#FFFFFF" />
</svg>