<svg xmlns="http://www.w3.org/2000/svg" enable-background="new 0 0 612 792" height="792px" id="&#22270;&#23618;_2" version="1.1" viewBox="0 0 612 792" width="612px" x="0px" y="0px" xml:space="preserve">
<path d="M349,400.4c0-0.1,0-0.1,0.1-0.2c0.4-1,1.3-1,2.2-1.1c0-0.5,0.1-0.9,0.2-1.3c0.1-0.6,0.2-1,0.3-1.6  c0.1-0.5,0.3-0.8,0.4-1.1c0.1-0.3,0.3-1,0.3-1.2c0.4,1.3,1.1,2.4,2,3.5c0.2,0.2,0.4,0.5,0.6,0.7c0.6,0.4,1.3,0.7,1.9,1.1  c0-0.1,0-0.1,0-0.2c-0.3-3.6-2.4-6.5-4-9.6c0,0,0-0.1,0-0.1c0,0,0,0,0,0h0c-0.5-1-1.1-1.9-1.5-2.9c-0.2,0-0.4-0.1-0.6-0.1  c-2-0.4-3.7-1-2.9-3.9c0.4-1.5-0.5-2.8-1.4-4c-1.6,6.8-4.3,13.5-3.8,20.7c3.5-3,2.6-7.7,5.3-11.7l0.1,12.1c0,0,0,0,0.1,0.1  C348.4,399.8,348.7,400.1,349,400.4z" fill="#FFFFFF" />
</svg>