<svg xmlns="http://www.w3.org/2000/svg" enable-background="new 0 0 612 792" height="792px" id="&#22270;&#23618;_2" version="1.1" viewBox="0 0 612 792" width="612px" x="0px" y="0px" xml:space="preserve">
<path d="M180.1,462.4c0,0,0.1,0.1,0.1,0.1C180.2,462.5,180.2,462.4,180.1,462.4c5.5,1.5,10.6,3.9,15.4,6.8  c2.1,1.3,4.4,2.4,4.7,5.2c-0.1,0.1-0.1,0.1-0.2,0.2c0.1,0,0.1,0,0.2-0.1c4.9-3.7,4.9-3.7,0.4-7.8c-2.8-2.5-5.5-4.9-7.6-7.9  c-1.3-1.8-2.9-3.4,0.2-5.2c2.1-1.3,0.7-2.9-0.4-4.2c-4.9-5.6-7.7-12.3-9.4-19.5c-0.3-1.3,0.2-3.3-2.1-3.4  c-0.4,8.2,1.6,15.8,5.6,22.8c2,3.5,0.8,4.6-2.6,5.5c-2.9,0.9-6.7-1-9,2.4c0,0.1,0,0.1,0,0.2c-0.1,0.3-0.1,0.6-0.2,0.9  c0,0.1,0,0.1-0.1,0.2C175.7,461.1,178.3,461.3,180.1,462.4z" fill="#FFFFFF" />
</svg>