<svg xmlns="http://www.w3.org/2000/svg" enable-background="new 0 0 612 792" height="792px" id="&#22270;&#23618;_2" version="1.1" viewBox="0 0 612 792" width="612px" x="0px" y="0px" xml:space="preserve">
<path d="M210.3,409.4c0,5.1-0.6,10.2,0.6,15.3c0.8,3.3,2.9,6.6,1.8,10c-1,2.9-4.5,1.1-6.6,2.2  c-0.3,0.1-0.5,0.3-0.8,0.6c2.3,0,4.6,0,6.9-0.2c7-0.6,8.5-3.8,4.8-9.9c-0.6-1-1.6-1.8-2-2.8c-1.7-4.6-4.9-8.9-2.7-14.3  c0,0,0-0.1,0-0.1c-0.1-1-0.2-1.9-0.2-2.8v0C211.1,407.6,210.3,408.3,210.3,409.4z" fill="#FFFFFF" />
</svg>