<svg xmlns="http://www.w3.org/2000/svg" enable-background="new 0 0 612 792" height="792px" id="&#22270;&#23618;_2" version="1.1" viewBox="0 0 612 792" width="612px" x="0px" y="0px" xml:space="preserve">
<path d="M130,541.9c22.3,5,43.7,13,65,21.1c28.2,10.7,57.3,18.4,86.8,24.5c33.9,7.1,67.7,14.6,101.2,23.1  c1.6,0.4,3.2,1.1,4.9,0.5c0,0,0,0,0.1,0c0,0,0-0.1-0.1-0.1c0.1-14.4,0.2-28.8,0.4-43.2c0-2.2-0.1-4.3,0.9-6.3  c0.2-0.2,0.4-0.3,0.6-0.5c-1.7-2.4-4.5-2.6-7.1-2.9c-10.1-1.5-19.9-4-29.9-5.7c-22-3.6-43.9-7.4-65.9-11.1  c-20.7-3.4-41.2-7.7-61.3-13.6c-16.4-4.8-32.2-11.7-48.1-17.9c-13.8-5.4-27.9-10-42.4-13.1c-3.6-0.7-7.5-2.3-11,0.6  c-2.8,1.1-1.9,3.6-2,5.6c-0.6,12.9,1.5,25.8,1.2,38.7C125.6,540.1,127.8,541.4,130,541.9z" fill="#FFFFFF" />
</svg>