<svg xmlns="http://www.w3.org/2000/svg" enable-background="new 0 0 612 792" height="792px" id="&#22270;&#23618;_2" version="1.1" viewBox="0 0 612 792" width="612px" x="0px" y="0px" xml:space="preserve">
<path d="M214.2,483.1C214.2,483.1,214.2,483.1,214.2,483.1c2,1.4,4.4,2.2,5.9,4.3c0,0,0,0.1,0.1,0.1c0,0,0-0.1,0-0.1  c5.4,2.5,9.4,7.3,14.7,9.9c0,0,0,0,0.1,0c1.2,0.5,2.3,0.9,3.4,1.2c4.5-3.3,4.7-4.6,0.8-8.4c-2.8-2.8-5.7-5.3-7.9-8.7  c0,0-0.1,0-0.1,0c-1.8-2.7,3.6-3.6,1.3-6.7c-1.8,1.9-3.3,4.4-6.4,3.6c-3.9,1.1-8.3-0.2-11.8,2.7c-0.1,0.1-0.2,0.2-0.2,0.3  c-0.4,0.3-0.7,0.7-1,1c0,0,0,0.1,0,0.1c0,0,0,0,0,0C213.5,482.6,213.8,482.9,214.2,483.1z" fill="#FFFFFF" />
</svg>