<svg xmlns="http://www.w3.org/2000/svg" enable-background="new 0 0 612 792" height="792px" id="&#22270;&#23618;_2" version="1.1" viewBox="0 0 612 792" width="612px" x="0px" y="0px" xml:space="preserve">
<path d="M433,441.4c-2.9,0.1-5.9,0.1-8.7,0.2c2.8,1.5,5.9,0.6,8.9,0.8c3,0.2,6-1.9,9.1-0.1l0,0  c3.3-4.1,2.4-7.6-1.3-10.8l0,0c-4.7-4.3-6.1-10.2-7.6-15.9c-0.3-1.1-0.4-2.6-2.1-2.2c-1.3,0.3-1,1.5-1.1,2.5c-0.1,0.8,0,1.7,0,2.5  c0,0.1-0.1,0.3-0.1,0.4c-0.1,6.5,1.8,12.5,5.3,17.9C437.5,439.9,436.5,441.2,433,441.4z" fill="#FFFFFF" />
</svg>