<svg xmlns="http://www.w3.org/2000/svg" enable-background="new 0 0 612 792" height="792px" id="&#22270;&#23618;_2" version="1.1" viewBox="0 0 612 792" width="612px" x="0px" y="0px" xml:space="preserve">
<path d="M196.2,490.8c2.5-1,4.3-2.6,3.8-5.6c-0.5-2.7-2.3-4.3-5.1-4.7c-2-0.3-4.1,0.4-5.7-1.2l0,0  c-2.6-1.1-4.5,2.2-7.1,1.1v0c-0.3,0.4-0.5,0.9-0.9,1.3c-1.9,1.6-5.1,2.7-4.6,5.8c0.6,3.4,4.1,3.8,6.9,4.8c0.5,0.1,1,0.1,1.5,0.2  c0.1,0,0.1,0,0.2,0C188.9,492.4,192.7,492.2,196.2,490.8z" fill="#FFFFFF" />
</svg>