<svg xmlns="http://www.w3.org/2000/svg" enable-background="new 0 0 612 792" height="792px" id="&#22270;&#23618;_2" version="1.1" viewBox="0 0 612 792" width="612px" x="0px" y="0px" xml:space="preserve">
<path d="M456.6,538.4c-7.2,10.9-13.4,22.7-23.5,31.4c-15.3,13.3-30.4,27.1-44.7,41.5c-0.1,0.1-0.1,0.1-0.2,0.2  c-2.1,13.7-0.3,27.6-1.4,41.5c-0.1,1.1-0.8,2.8,1.1,3.4l0,0c1.2-1.3,2.5-2.6,3.7-4C422,617.6,452.4,582.7,483,548  c2.6-2.9,3.4-6,3.1-9.6c0-0.1,0.1-0.2,0.1-0.3c0.1-8.1-0.9-16.3,0.6-24.4c0.1-0.4,0.1-0.8,0.2-1.2c0-0.6,0-1.3,0-2c0,0-0.1,0-0.1,0  c-5.4,0.1-9.7,2.7-13.6,6.3C466.6,523.1,461.6,530.7,456.6,538.4z" fill="#FFFFFF" />
</svg>