<svg xmlns="http://www.w3.org/2000/svg" enable-background="new 0 0 612 792" height="792px" id="&#22270;&#23618;_2" version="1.1" viewBox="0 0 612 792" width="612px" x="0px" y="0px" xml:space="preserve">
<path d="M460.1,419.4C460.1,419.4,460.1,419.4,460.1,419.4c0,0-0.1,0-0.1,0c-1.8-0.2-3.5-0.6-5.3-0.7  c-1.9-0.1-4.1-1.8-5.7,0.7c-0.2,2,1.2,2.8,2.7,3.5c2.4,1.2,4.9,2.5,7.3,3.7c0,0,0.1,0.1,0.1,0.1c0,0,0-0.1,0-0.1  c1.9,0.4,3.2,1.7,4.7,2.7c2.3-1.5,3.7,0,4.9,1.9c1.2,2,2.3,4,4.5,5.1c-2.3-4-3.2-8.5-4.2-12.9c-0.6-1.1-1.3-2.1-1.9-3.1  C464.8,420.2,462.3,420.7,460.1,419.4z" fill="#FFFFFF" />
</svg>