<svg xmlns="http://www.w3.org/2000/svg" enable-background="new 0 0 612 792" height="792px" id="&#22270;&#23618;_2" version="1.1" viewBox="0 0 612 792" width="612px" x="0px" y="0px" xml:space="preserve">
<path d="M410.1,419.3c0,0-0.1,0.1-0.1,0.1c-2.3,0.1-4.6,0.4-6.9,0.1c-4-0.6-6.3,0.9-7,4.8c0,0.1,0,0.1,0.1,0.2  c3.7,2.4,8.5,2,11.9,5c0,0,0,0,0,0c5.6,3.2,9.6,8.2,12.8,13.4c1.9,3-2.4,3.6-4.8,4.5c-0.4,0.4-0.8,0.8-1.1,1.2v0l0,0  c2.7,1.6,4.8-0.6,7.2-1.2v0c0.8-0.8,1.9-2,3-1.1c7.8,6.7,17.9,7.6,27,11c0,0,0,0,0,0c2.8-1.5,1-5.2,3-7c0-0.3,0-0.6,0-0.9  c-1.5-4.7-6.6-3.1-9.4-5.6c-0.9-0.8-2.3-1-3.5-1.5v0l0,0c-3.1-1.8-6.1,0.3-9.1,0.1c-3-0.2-6.1,0.7-8.9-0.8c-0.1,0-0.1,0-0.2,0  c-3-1-4-3.2-3.8-6.2c0.1,0,0.1,0,0.2-0.1c-0.1-0.1-0.1-0.2-0.2-0.2c-3-3.5-4.5-7.7-6.2-11.9c0,0.1,0,0.1,0,0.2  C412.9,421.8,412.9,419.2,410.1,419.3z" fill="#FFFFFF" />
</svg>