<svg xmlns="http://www.w3.org/2000/svg" enable-background="new 0 0 612 792" height="792px" id="&#22270;&#23618;_2" version="1.1" viewBox="0 0 612 792" width="612px" x="0px" y="0px" xml:space="preserve">
<path d="M215,424.6c0.4,1,1.4,1.8,2,2.8c3.7,6.1,2.2,9.3-4.8,9.9c-2.3,0.2-4.6,0.2-6.9,0.2c0.2-0.3,0.5-0.5,0.8-0.6  c-0.3,0.1-0.6,0.3-0.9,0.6c-0.7,3,0.4,4.4,3.4,5.4c3.6,1.2,6.9,3,10.4,4.6c0,0,0.1,0,0.1,0c2.8,0.2,4.5,2.2,6.6,3.8  c2.4,1.8,2.8,0.4,2.4-1.8c0,0,0,0,0,0c-2-2.6-3.9-5.2-6.2-7.9c-1.9-2.3-2.9-4.3,0.6-6.3c1.8-1,1.8-2.7,0.4-4.2  c-5.7-5.8-8.5-13.2-10.6-20.8C210.1,415.7,213.3,420,215,424.6z" fill="#FFFFFF" />
</svg>