<svg xmlns="http://www.w3.org/2000/svg" enable-background="new 0 0 612 792" height="792px" id="&#22270;&#23618;_2" version="1.1" viewBox="0 0 612 792" width="612px" x="0px" y="0px" xml:space="preserve">
<path d="M174.1,480.2c0.1,0,0.1-0.1,0.2-0.1c2.3-3.4,6.1-1.5,9.1-2.4c3.2-1,4-1.8,2-4.6c-2.3-3.3-4-6.8-5.2-10.6  c0,0-0.1-0.1-0.1-0.1c-1.9-1.1-4.5-1.3-5.1-3.9c0-0.1,0-0.1,0-0.2c-0.3,1.1-0.5,2.3-0.9,3.3c-1.8,5-2.8,10.3-6,14.7c0,0,0,0,0,0.1  C167.9,481.2,171.2,480.3,174.1,480.2z" fill="#FFFFFF" />
</svg>