<svg xmlns="http://www.w3.org/2000/svg" enable-background="new 0 0 612 792" height="792px" id="&#22270;&#23618;_2" version="1.1" viewBox="0 0 612 792" width="612px" x="0px" y="0px" xml:space="preserve">
<path d="M396.1,424.4C396.1,424.4,396.1,424.3,396.1,424.4c0.7-4,3-5.5,7-4.9c2.3,0.3,4.6,0,6.9-0.1  c0,0,0.1-0.1,0.1-0.1c0,0-0.1,0-0.1,0c-0.7-6.7-1.9-13.2-5.9-18.9c-2.7,0.7-3,3.3-3.9,5.3c-0.8,2.2-1.9,4.2-3.9,5.7  c-0.1,0.1-0.2,0.2-0.2,0.3c-1,1.1-1.9,2.3-2.9,3.5c0,0.1-0.1,0.2-0.1,0.2C391.7,419.2,393.8,421.8,396.1,424.4z" fill="#FFFFFF" />
</svg>