<svg xmlns="http://www.w3.org/2000/svg" enable-background="new 0 0 612 792" height="792px" id="&#22270;&#23618;_2" version="1.1" viewBox="0 0 612 792" width="612px" x="0px" y="0px" xml:space="preserve">
<path d="M338.9,426.8c-4.3,0.3-6.1,2.2-6.1,5.3c0,3.3,3.7,0.1,4.6,2.3c0,0.2-0.1,0.7-0.1,0.7c-7-0.3-7.2,5.4-8.7,9.9  c-0.4,1.8-1,3.5-1.5,5.2c-3.7,8.8-7.4,17.6-11.1,26.4c0,0-0.1,0.1-0.2,0.1c0,0,0,0,0.1,0c-0.6,2-1.2,4.1-2.7,5.7  c-0.3,0.5-0.7,1-1,1.5c2.6,2.4,1.3,5,0.4,7.6c-4,10.1-7.5,20.3-11.6,30.3c-0.6,1.4-0.5,2.9-1.1,4.3c0,0.1-0.1,0.2-0.1,0.2  c1.2,0,2.4,0,3.4,0.9l0,0c17.8,5,35.9,8.3,53.9,12.2c0.2-0.2,0.5-0.2,0.8-0.1c0.1-0.2,0.2-0.4,0.2-0.6c0-0.1,0-0.1,0-0.2  c-0.3-14-1.5-27.9-1.1-41.9c0-1.3,0-2.7-0.1-4c-1.1-22.7-2.7-45.4-4.9-68c-0.8-8.1-0.9-16.3-2.9-24.2c0,0,0-0.1-0.1-0.2  c0,0.1,0,0.1-0.1,0.2c-0.3-0.3-0.6-0.6-0.9-0.8c-0.1,0-0.2,0-0.3,0c-4.7,0-7.7,1.7-8.4,7c-0.5,4-2.2,7.8-3.3,11.7c0,0,0,0,0,0.1  C336.8,421.2,332.3,425.1,338.9,426.8z M335,451.6c-2.2,1.3-3.6,0.9-5.5,0.4C331.2,449.9,332.7,450.6,335,451.6z M342.3,517.1  c-3.1,7.4-8.1,10-15.9,8.4c-6.3-1.3-9.4-5.7-9.5-13.3c-0.1-4.2,0.6-8.3,1.9-12.3c2.8-8.5,7.3-11.1,15.9-9.6  c7.3,1.3,10.3,5.6,10.2,14.7C344.7,508.8,344,513.1,342.3,517.1z M346.4,464.6c-3.5,0.8-5.5,0.2-7.9-1.6  C341.6,462.1,343.5,463.2,346.4,464.6z" fill="#FFFFFF" />
</svg>