<svg xmlns="http://www.w3.org/2000/svg" enable-background="new 0 0 612 792" height="792px" id="&#22270;&#23618;_2" version="1.1" viewBox="0 0 612 792" width="612px" x="0px" y="0px" xml:space="preserve">
<path d="M416.3,415c-3.5-5-5.8-10.6-7.8-16.5c-1.1-3.3,0.2-7.5-3.2-10c0,0-0.1,0.1-0.1,0.1c0.2,1.4,0.2,2.8,0.5,4.2  c0.7,3.1-0.3,4.7-3.5,4.6c0,0,0,0,0,0v0.1l0,0c-0.2,0.4-0.4,0.8-0.5,1.2c-1.8,4.3-3.8,8.6-5.7,12.9c0.1-0.1,0.2-0.2,0.3-0.2  c2-1.4,3-3.5,3.9-5.7c0.9-2,1.2-4.6,3.9-5.3c4,5.7,5.2,12.2,5.9,18.9c0,0,0.1,0,0.1,0c2.8-0.1,2.8,2.5,4,4.1c0-0.1,0-0.1,0-0.2  c0.1-1.1-0.2-2.5,1.1-2.8C419.8,419.4,418,417.4,416.3,415z" fill="#FFFFFF" />
</svg>