<svg xmlns="http://www.w3.org/2000/svg" enable-background="new 0 0 612 792" height="792px" id="&#22270;&#23618;_2" version="1.1" viewBox="0 0 612 792" width="612px" x="0px" y="0px" xml:space="preserve">
<path d="M266.9,420.4c-3.4-1.9-7.6,0.2-11-2c-0.2,1.6,1.1,4.5-0.9,4.7c-5.1,0.9-2.5,3.7-2.1,6.1  c0.3,2.1,3.3,3.3,2.2,6c0,0,0.1,0.1,0.1,0.1c-0.2,0.6-0.3,1.3-0.5,1.9c1.3,0.7,1.8,3.1,3.8,2.1c1.6-0.8,1.5-2.8,1.6-4.4  c0.2-2.3-0.4-4.5-1.4-6.6c-0.5-1.2-1.1-2.7-0.1-3.7c1.3-1.4,2.1,0.9,3.4,0.8c0,0,0,0,0,0C262.6,422.7,266.1,422.9,266.9,420.4z" fill="#FFFFFF" />
</svg>