<svg xmlns="http://www.w3.org/2000/svg" enable-background="new 0 0 612 792" height="792px" id="&#22270;&#23618;_2" version="1.1" viewBox="0 0 612 792" width="612px" x="0px" y="0px" xml:space="preserve">
<path d="M468.7,431.2c-1.2-1.9-2.6-3.4-4.9-1.9c0.1,0.1,0.2,0.1,0.3,0.2c1.4,4.4,3,8.8,4.3,13.3  c2,6.7,0.6,8.2-6.3,6.9c-0.7-0.1-1.3-0.2-2-0.3c-1.6,0-3.3,0-4.9,0c0,0.3,0,0.6,0,0.9c0,0,0,0.1,0,0.1c1,0.1,2.1,0.2,2.9,1.1  c0.1,0,0.1,0,0.2,0c6.4,0.4,12.8,0.9,19.2,1.2c2.6,0.1,4-0.8,2.5-3.6c-2.3-4.3-4.5-8.5-6.8-12.8C471,435.2,469.9,433.2,468.7,431.2z  " fill="#FFFFFF" />
</svg>