<svg xmlns="http://www.w3.org/2000/svg" enable-background="new 0 0 612 792" height="792px" id="&#22270;&#23618;_2" version="1.1" viewBox="0 0 612 792" width="612px" x="0px" y="0px" xml:space="preserve">
<path d="M254,456.6C254,456.6,254,456.5,254,456.6c-1.4-1.7-1.1-3.7-1-5.6c0-1.2-0.4-2.9,1.5-3  c1.5-0.1,2.3,1.1,2.7,2.4c0.3,1.5,0.5,3.2,0.8,4.8c0,0,0,0,0,0c2.2,0.3,3.7-0.5,4.1-2.8c-0.7-1.7-1.7-4.3,0.4-4.6  c2.9-0.5,6-3.6,9-0.4c2.1-0.7,1.3,1.2,1.8,2h0c1.1-1.9,1.7-3.9,1.9-6c0,0,0-0.1,0-0.1c-2.5-0.9-4.4-3.1-7.7-1.6  c-2.5,1.1-2.9-1.9-3-3.5c-0.4-3.9-0.3-7.8-0.4-11.8c-0.7-0.3-1.4-0.6-2.1-0.9c0,0,0-0.1,0-0.1c-1.3,0.1-2.1-2.2-3.4-0.8  c-1,1-0.4,2.5,0.1,3.7c1,2.1,1.6,4.3,1.4,6.6c-0.1,1.6,0,3.6-1.6,4.4c-1.9,1-2.5-1.5-3.8-2.1c0,0,0,0,0,0c-4.4,4-8.6,4.3-12.7,0.8  c-0.4,0.3-0.8,0.6-1.2,0.9v0c4.2,6.2,8.5,12.2,11.8,18.9c0.2,0.3,0.9,0.3,1.4,0.4c0,0,0.1-0.1,0.1-0.1c0,0-0.1,0-0.1,0  C254,457.6,254,457.1,254,456.6z" fill="#FFFFFF" />
</svg>