<svg xmlns="http://www.w3.org/2000/svg" enable-background="new 0 0 612 792" height="792px" id="&#22270;&#23618;_2" version="1.1" viewBox="0 0 612 792" width="612px" x="0px" y="0px" xml:space="preserve">
<path d="M393.4,478.3c-0.1-0.2-0.2-0.4-0.2-0.6c0,0.2,0.1,0.3,0.1,0.5c-1.4-0.7-1.5-2-1.2-3.3  c0.6-2.8-1.2-2.5-2.8-2.5c-0.1,0-0.1,0.1-0.2,0.1c0.3,5.9,4,10.6,5.4,16.2c1.7,6.6,3.6,13.3,7.1,19.3c0.3,0.4,0.5,0.9,0.8,1.3  c0.5-0.3,1.1-0.9,1.7-0.9c9.3-1,18.5-2,27.8-2.7c3.7-0.2,5.8-1.1,5.2-5.2c-0.1-0.8,0-1.7,0.1-2.5c0.1-0.9,0.4-1.8,1.4-1.8  c1.4-0.1,1.3,1.1,1.3,2.1c0,0.7-0.8,1.5,0.5,2.2c3.5-4.7,6.2-9.8,8.5-15.1c1.1-2.4,2.1-4.9,3.4-7.2c1.3-2.4,3.8-2.5,5.6-1.1  c2.2,1.7-0.4,2.8-1.2,4c-3.3,4.6-6.6,9.2-9.9,13.8c-0.5,0.8-2.2,1.9-0.2,2.6c3.6,1.3,1.8,2-0.1,3.1c-1.1,0.6-2.7,0.7-3.4,3.1  c4.5-1.9,9.2-0.9,11.8-5.6c4.3-7.7,8.9-15.3,13.3-22.9c0,0,0-0.1-0.1-0.1c-1.8-5.4-5.5-7.4-11.3-6.9c-5.4,0.5-10.9,1.5-15.9,2.9  c-4.9,1.4-10.5-0.4-14.8,3.2c0,0-0.1,0-0.1,0c0,0,0,0,0,0C415.8,481.1,405.2,484.1,393.4,478.3z" fill="#FFFFFF" />
</svg>