<svg xmlns="http://www.w3.org/2000/svg" enable-background="new 0 0 612 792" height="792px" id="&#22270;&#23618;_2" version="1.1" viewBox="0 0 612 792" width="612px" x="0px" y="0px" xml:space="preserve">
<path d="M455.2,450.4C455.2,450.4,455.2,450.3,455.2,450.4c-2,1.8-0.2,5.4-3,6.9c0.1,3.6-0.2,6.6-5.2,4.7  c-1.2-0.5-2.2,0.2-3.3,0.6c-2.7,0.9-5.4,1.9-8.1,2.3c-6.1,0.9-12.6,2.3-15-6.8c-2,3.7,0.4,5.2,2.4,7.3c-5.9,1.1-11.3,1.9-16.7,2  c0.1,0,0.1-0.1,0.2-0.1c-0.1,0-0.3,0.1-0.4,0.1c-2.8,2.5-6.5,3.1-9.7,4.9c-2.3,1.3-3.8,2.8-3.2,5.4c0.1,0.2,0.1,0.4,0.2,0.6  c11.8,5.8,22.4,2.8,32.6-4c0,0,0,0,0,0c0.8-3.4,2.6-4.6,6.4-4.5c8.5,0.1,16.8-1.4,24.9-4.2c0.1-0.1,0.1-0.1,0.1-0.2  c-0.1,0-0.2,0-0.2,0c0-0.7,0-1.3,0-2c-2.2-4.1,0.1-7.9,1.1-11.8c0,0,0-0.1,0-0.1c-0.1,0-0.1,0-0.2,0  C457.3,450.6,456.2,450.5,455.2,450.4z" fill="#FFFFFF" />
</svg>