<svg xmlns="http://www.w3.org/2000/svg" enable-background="new 0 0 612 792" height="792px" id="&#22270;&#23618;_2" version="1.1" viewBox="0 0 612 792" width="612px" x="0px" y="0px" xml:space="preserve">
<path d="M269.9,463.2c1.7,6.7,4.4,12.3,12.4,12c0.2,0,0.4-0.1,0.6-0.1c11,0.5,22,1.1,32.9,1.6c0,0,0.1-0.1,0.2-0.1  c3.7-8.8,7.4-17.6,11.1-26.4c-2.3-0.6-1.7-2.5-2-4.1c-4.5-23-9.9-45.8-16.2-68.4c-0.6-2.2-1.8-4.3-2.8-6.4c0.1,0,0.1-0.1,0.2-0.1  c-0.1,0-0.1,0-0.2-0.1c-8.7,0-8.5,0-10.2,8.6c-2.7,14.2-6.4,28-12.4,41.2c0,0-0.1,0-0.1,0c0,0.1,0.1,0.2,0.1,0.4  c-0.8,1.7-1.6,3.5-2.4,5.2c0,0-0.1,0.1-0.1,0.1c-2,5.6-3.9,11.2-5.8,16.7c0,0,0,0,0,0c0,0,0,0.1,0,0.1c-0.2,2.1-0.8,4.1-1.9,6h0l0,0  c-0.3,3.8-2.5,6.8-4.2,10c0.1,0.9,0.1,1.9,0.2,2.8c0,0.1-0.1,0.1-0.1,0.2c0,0,0.1,0,0.1,0C269.5,462.7,269.8,462.9,269.9,463.2z   M312.4,434.7c-1.8,1-3.1,0.9-4.5-0.6C309.7,433.1,311,433.1,312.4,434.7z M302.5,411.6c-1.9,2.3-3.4,1.9-5.8,0.6  C298.9,410.8,300.4,411.2,302.5,411.6z M301.7,426.1c-1.9,1.7-3.3,1.7-5.1,0.4C298.1,425.1,299.6,425.4,301.7,426.1z M294.5,445.4  c3.8-4.2,9.3-3.7,14.4-2.3c2.8,0.7,4.9,2.2,5.2,5.3c2.3,4.7,2.3,9.5,0.6,14.4c-1.7,5.1-6.2,7.7-12.7,7.5c-5.7-0.2-8.4-2.1-10.1-7.6  c0,0,0-0.1,0-0.1C289.8,456.4,290.2,450.2,294.5,445.4z" fill="#FFFFFF" />
</svg>