<svg xmlns="http://www.w3.org/2000/svg" enable-background="new 0 0 612 792" height="792px" id="&#22270;&#23618;_2" version="1.1" viewBox="0 0 612 792" width="612px" x="0px" y="0px" xml:space="preserve">
<path d="M195.5,469.2c-4.8-2.9-9.9-5.3-15.3-6.8c0,0,0,0.1,0,0.1c1.2,3.8,2.9,7.3,5.2,10.6c2,2.8,1.2,3.6-2,4.6  c-3.1,0.9-6.8-1-9.1,2.4c0,0,0,0.1-0.1,0.1c2.6,0.1,5.3,0.1,7.9,0.2l0,0v0c2.6,1.1,4.5-2.2,7.1-1.1l0,0c0.4,0,0.8,0,1.1,0  c0,0,0,0,0.1,0c2.4-3.1,7-2,9.6-4.7c0.1-0.1,0.1-0.1,0.2-0.2C199.9,471.6,197.6,470.5,195.5,469.2z" fill="#FFFFFF" />
</svg>