<svg xmlns="http://www.w3.org/2000/svg" enable-background="new 0 0 612 792" height="792px" id="&#22270;&#23618;_2" version="1.1" viewBox="0 0 612 792" width="612px" x="0px" y="0px" xml:space="preserve">
<path d="M216.1,504.4L216.1,504.4c1.1-0.4,2.1-0.9,3.3-1c2.3-0.4,2.7-1.3,1.8-3.4c-1.7-4-2.7-8.1-1-12.5  c0,0,0-0.1-0.1-0.1c-1.5-2.1-3.9-2.9-5.9-4.2c0,0-0.1,0-0.1-0.1c-0.9,1.6-2.1,3-2.7,4.7c-1.5,4.4-4.3,6.2-9,5.8  c-4.7-0.4-9.6-0.2-14.4-0.2c0.1,0.1,0.3,0.1,0.4,0.1c5.2,1.9,10.5,0.6,15.8,1.1c1.4,0.1,3.3-0.4,2.8,2.1c-1.5,7.2,5.7,9.6,8.1,14.6  c0,0,0.1,0,0.1,0C215.3,509,214.5,506.5,216.1,504.4z" fill="#FFFFFF" />
</svg>