<svg xmlns="http://www.w3.org/2000/svg" enable-background="new 0 0 612 792" height="792px" id="&#22270;&#23618;_2" version="1.1" viewBox="0 0 612 792" width="612px" x="0px" y="0px" xml:space="preserve">
<path d="M398.2,527.3c0,0.1-0.1,0.1-0.1,0.1c2.3,3.8,0.9,5.8-3.1,6.5c-9.1,1.5-17.8,5.2-27.2,5.7  c-1,0.1-2.1,0.3-2.8,0.8c-2.9,2.5-5.1,1.5-7.1-1.1c-0.3-0.1-0.6-0.1-0.8,0.1c-0.3,2.2-0.6,4.4-0.9,6.6c6.9-0.4,13.1-3.5,19.7-4.9  c11.5-2.5,22.8-5.2,34.2-7.9c0,0,0.1,0,0.1,0c1.2-2.5,3.1-5.1,1.2-7.8c-2.1-3.1-3-6.5-3.2-10.1c-0.1-0.9,0-2.1-1.2-2.4  c-1.5-0.4-2.6,0.1-3,1.7c0.1,0.2,0.1,0.4,0.2,0.6C405.7,520.9,406.6,526.2,398.2,527.3z" fill="#FFFFFF" />
</svg>