<svg xmlns="http://www.w3.org/2000/svg" enable-background="new 0 0 612 792" height="792px" id="&#22270;&#23618;_2" version="1.1" viewBox="0 0 612 792" width="612px" x="0px" y="0px" xml:space="preserve">
<path d="M290.4,329c-1.7,0-2.3-2.1-3.5-0.8c-1,1.1,0.1,2.1,0.7,3.1c4.6,7.6,9.2,15.3,13.8,23  c0.1,0.2,0.1,0.3,0.1,0.5c0-0.1,0-0.3,0-0.4c1.1,2.6,1.5,5.4,1.8,8c1,0.7,2.5,0.6,3-1.2c0,0-0.1-0.1,0,0c0-0.2-0.2-0.4-0.4-0.6  c-3.1-4.3-2.8-8.2-0.8-13.1c3.2-8,6.1-16.1,9.1-24.2c0.5-1.5,2.4-3.9,0.1-4.7c-2.6-0.9-2.7,2.2-3.4,3.9c-0.9,2.3-0.5,5.5-3,6.5  c-2,0.7-2.4,1.9-2.6,3.3c-0.1,0.4-0.1,0.7-0.3,1.2c-0.2,0.5-0.7,0.7-1.5,0.9c-0.6,0.1-1.1,0-1.6,0c-1.8-0.4-2.5-1.8-2.8-3.9  c-1.1-7.2-2.5-14.3-3.8-21.5c-0.3-1.9-0.8-3.9-3.3-3.3c-2.5,0.6-2,2.7-1.5,4.5l8.8,28.8c0.2,0.7,1.9,4.8,0.2,8.1  c-0.6-1.2-0.9-1.8-1.1-2.4c-4.5-11.3-8.9-22.6-13.4-33.8c-0.5-1.4-1-4-3-3.1c-2.4,1-0.1,2.9,0.4,4.1  C284.9,317.5,287.6,323.1,290.4,329z" fill="#FFFFFF" />
</svg>