<svg xmlns="http://www.w3.org/2000/svg" enable-background="new 0 0 612 792" height="792px" id="&#22270;&#23618;_2" version="1.1" viewBox="0 0 612 792" width="612px" x="0px" y="0px" xml:space="preserve">
<path d="M123.3,542.8c-0.1,3.9-0.6,7.8,0.5,11.6c0,0.3,0.1,0.6,0.1,0.9c0.4,6.1,1,12.3,0.9,18.4  c-0.1,4.6,1.5,6.7,6,8c51.8,15.3,103.6,30.9,155.4,46.3c31.4,9.4,62.9,18.7,94.3,27.9c2.3,0.7,4.8,3,7.4,0.5  c-1.9-0.6-1.2-2.3-1.1-3.4c1.1-13.9-0.7-27.8,1.4-41.5c0.1-0.1,0.1-0.1,0.2-0.2c-0.1-0.1-0.3-0.1-0.4-0.2c0,0,0,0-0.1,0  c-1.7,0.6-3.3-0.1-4.9-0.5c-33.5-8.5-67.3-16-101.2-23.1c-29.5-6.1-58.6-13.8-86.8-24.5c-21.3-8.1-42.7-16.1-65-21.1  c-2.2-0.5-4.4-1.8-6.7-0.3" fill="#FFFFFF" />
</svg>