<svg xmlns="http://www.w3.org/2000/svg" enable-background="new 0 0 612 792" height="792px" id="&#22270;&#23618;_2" version="1.1" viewBox="0 0 612 792" width="612px" x="0px" y="0px" xml:space="preserve">
<path d="M273.3,449.4c-0.5-0.8,0.3-2.7-1.8-2c-3.1,1.7-6.2,3.3-9.4,5c-0.4,2.3-2,3.1-4.1,2.8  c-1.3,0.5-2.6,0.9-3.9,1.4c0,0,0,0-0.1-0.1c0,0,0,0,0,0.1c0,0.5,0,1,0,1.5c0,0,0.1,0,0.1,0c1.9,0.6,3.9,0,5.7,1.3  c3,2.2,6.2,1.8,9.3,0c0,0,0,0,0,0C270.8,456.2,273,453.2,273.3,449.4L273.3,449.4z" fill="#FFFFFF" />
</svg>