<svg xmlns="http://www.w3.org/2000/svg" enable-background="new 0 0 612 792" height="792px" id="&#22270;&#23618;_2" version="1.1" viewBox="0 0 612 792" width="612px" x="0px" y="0px" xml:space="preserve">
<path d="M407.5,459.5c-3.5-4.5-7.3-5.8-12.3-5.1c0,0,0,0.1-0.1,0.1c-3.6,0-7.3-0.3-10.8,1.1  c-1.1,0.4-1.9,0.1-2.3-1.1c0.2-0.1,0.4-0.2,0.6-0.3c-0.2,0-0.4,0.1-0.6,0.1c-0.3,0.7-0.5,1.3-0.8,2c0,0,0,0.1,0.1,0.1  c0.3,0.7,0.7,1.2,0.9,1.9l0,0h0c1.6,3.9,2.7,8.1,5.8,11c-0.1,1.2,0.1,2.2,1,3.1c0.1,0,0.2,0,0.3,0c1.6,0,3.4-0.3,2.8,2.5  c-0.3,1.3-0.2,2.6,1.2,3.3c-0.1-0.2-0.1-0.3-0.1-0.5c-0.6-2.6,1-4.1,3.2-5.4c3.2-1.8,6.9-2.4,9.7-4.9c0.1,0,0.3-0.1,0.4-0.1  C411.8,464.3,411.3,464.5,407.5,459.5z" fill="#FFFFFF" />
</svg>