<svg xmlns="http://www.w3.org/2000/svg" enable-background="new 0 0 612 792" height="792px" id="&#22270;&#23618;_2" version="1.1" viewBox="0 0 612 792" width="612px" x="0px" y="0px" xml:space="preserve">
<path d="M266.2,509.4c-10.4-2.6-20.8-5.3-31.2-7.9c0.5-2,2.4-1.9,3.4-3c-1.1-0.3-2.2-0.7-3.4-1.2c0,0,0,0-0.1,0  c0.1,0,0.1,0.1,0.2,0.1c-1.6,4.1-6.3,3.5-9,5.9l0,0c1.8,0.1,3.7,0,5.4,0.8c2.2,1.1,3.9,2.7,4.2,5.2c0.3,2.7-1.9,3.6-3.9,4.6  c-2.5,1.3-5,2.7-7.9,2.6l0,0c13.3,4.3,25.8-0.3,38.4-3.5c2.5-0.6,4.8-1.9,7.5-1.7c0,0,0,0,0,0C269.4,509.2,267.6,509.7,266.2,509.4z  " fill="#FFFFFF" />
</svg>