<svg xmlns="http://www.w3.org/2000/svg" enable-background="new 0 0 612 792" height="792px" id="&#22270;&#23618;_2" version="1.1" viewBox="0 0 612 792" width="612px" x="0px" y="0px" xml:space="preserve">
<path d="M302.1,316.5c0.5-5.6,0.5-11.5,4.5-16c4.8-5.3,9.2-11,15.1-15.2c7.5-5.5,11.6-12.5,10.3-22.2  c-0.3-2-0.3-4-0.4-6c-0.9-13.5-3.2-27.1,0-40.7c0.2-0.9,0.2-1.7-1.2-1.9c-4.6,8.1-8.3,16.4-10.1,25.7c-2.2,11-5.3,21.7,1.2,32.3  c0.5,0.9,0.4,2.3,0.4,3.4c-0.1,3.3-1.2,5.5-4.7,7.2c-7.2,3.5-11.8,10.1-17.3,15.6c-0.4,0.4-0.5,1.3-0.5,1.9c0,6.7-0.7,13.4,2.5,19.9  C301.9,319.1,301.8,317.8,302.1,316.5z" fill="#FFFFFF" />
</svg>