<svg xmlns="http://www.w3.org/2000/svg" enable-background="new 0 0 612 792" height="792px" id="&#22270;&#23618;_2" version="1.1" viewBox="0 0 612 792" width="612px" x="0px" y="0px" xml:space="preserve">
<path d="M467.5,379.8c-2-0.4-2.4,1.3-2.9,2.7c-3.2,10-8.3,19.1-15.8,26.5c-3.7,3.7-6.2,6.5-0.6,10.4h0  c-0.9,4.9-2.9,9.2-7.2,12.1v0c3.7,3.2,4.6,6.7,1.3,10.8v0c1.2,0.5,2.6,0.7,3.5,1.5c2.8,2.5,7.9,0.9,9.4,5.6c1.6,0,3.3,0,4.9,0  c0.7-1.4,1-2.8,0.4-4.3c-2.2-6.1-1.3-12.2-1.4-18.4c0,0-0.1-0.1-0.1-0.1c-2.4-1.2-4.9-2.5-7.3-3.7c-1.5-0.7-2.9-1.5-2.7-3.5  c1.6-2.5,3.8-0.8,5.7-0.7c1.8,0.1,3.5,0.5,5.3,0.7c0,0,0.1,0,0.1,0c2.5-2.4,2.2-5.5,2-8.4c-0.5-8.6,1.1-16.8,3.8-25  c0-0.2,0.1-0.4,0.1-0.6c0.4-1.3-0.4-3,1.4-4.3c1.8,4.1-0.2,8.6,1.6,12.4c0-3.4,0.1-6.9,0.1-10.4  C469.1,381.8,469.1,380.2,467.5,379.8z" fill="#FFFFFF" />
</svg>