<svg xmlns="http://www.w3.org/2000/svg" enable-background="new 0 0 612 792" height="792px" id="&#22270;&#23618;_2" version="1.1" viewBox="0 0 612 792" width="612px" x="0px" y="0px" xml:space="preserve">
<path d="M298.2,483.3c4.6,0.2,8.9,3.1,13.6,1.4c0.1-0.3,0.3-0.5,0.4-0.8c0.3-0.5,0.6-1,1-1.5  c1.5-1.6,2.1-3.7,2.7-5.7c0,0,0,0-0.1,0c-11-0.5-22-1.1-32.9-1.6c-0.2,0.1-0.4,0.1-0.6,0.1c-3.5,0.6-8.3-1.9-9.4,4.2  c0.4,0.7,0.8,1.3,1.2,2c5.5-0.9,10.9-1.3,16.2,0.5c2.5,0.8,5.1,1.7,7.8,1.4" fill="#FFFFFF" />
</svg>