<svg xmlns="http://www.w3.org/2000/svg" enable-background="new 0 0 612 792" height="792px" id="&#22270;&#23618;_2" version="1.1" viewBox="0 0 612 792" width="612px" x="0px" y="0px" xml:space="preserve">
<path d="M194.9,480.5c2.8,0.4,4.6,2,5.1,4.7c0.5,3-1.3,4.6-3.8,5.6c-3.5,1.4-7.3,1.6-11,1.7c0,0,0,0.1-0.1,0.1  c1,0.3,2,0.6,3,0.9c0.1,0,0.2,0,0.3,0c-0.1,0-0.3-0.1-0.4-0.1c4.8,0,9.7-0.2,14.4,0.2c4.7,0.4,7.5-1.4,9-5.8  c0.6-1.7,1.8-3.1,2.7-4.7c0,0,0.1,0,0.1,0.1c0,0,0,0,0-0.1c-0.4-0.2-0.7-0.5-1.1-0.7c0,0,0,0,0,0c-7.5-1.8-14.9-3.9-22.6-3  c-0.1,0-0.1-0.1-0.2-0.1c-0.4,0-0.8,0-1.1,0C190.8,480.9,192.9,480.2,194.9,480.5z" fill="#FFFFFF" />
</svg>