<?xml version="1.0" encoding="utf-8"?>
<!-- Generator: Adobe Illustrator 21.0.0, SVG Export Plug-In . SVG Version: 6.00 Build 0)  -->
<svg version="1.1" id="图层_2" xmlns="http://www.w3.org/2000/svg" xmlns:xlink="http://www.w3.org/1999/xlink" x="0px" y="0px"
	 width="612px" height="792px" viewBox="0 0 612 792" enable-background="new 0 0 612 792" xml:space="preserve">
<path fill="none" stroke="#000000" stroke-miterlimit="10" d="M355,398.1c-0.2-0.2-0.4-0.4-0.6-0.7c-1,0-2,0.3-3,0.4
	c-0.1,0.4-0.1,0.8-0.2,1.3c-0.8,0.2-1.7,0.1-2.2,1.1c0,0.1,0,0.1,0.1,0.2c2,7.9,2.1,16.1,2.9,24.2c2.2,22.6,3.8,45.3,4.9,68
	c0.1,1.3,0.1,2.7,0.1,4c-0.4,14,0.8,27.9,1.1,41.9c0,0.1,0,0.1,0,0.2c0-0.1,0-0.1,0.1-0.2c11.7-2.6,23.1-6.6,34.6-10
	c1.8-0.5,3.6-0.8,5.3-1.1c0,0,0,0,0,0c0-0.1,0.1-0.1,0.1-0.1c8.4-1.1,7.5-6.4,6-12.1c-0.4-0.1-0.7-0.3-1.2-0.3
	c-1.9-1.3-2.4-3.2-2.2-5.4c0.2-0.6,0.5-1.1,0.8-1.5c-3.5-6-5.5-12.7-7.1-19.3c-1.4-5.6-5.1-10.3-5.4-16.2c0.1,0,0.1-0.1,0.2-0.1
	c-0.1,0-0.2,0-0.3,0c-0.9-0.9-1.1-1.9-1-3.1c-3.1-2.9-4.2-7.1-5.8-11h0l0,0c-0.3-0.7-0.7-1.2-0.9-1.9c0,0,0,0-0.1,0
	c-7.6-19.1-14.2-38.7-24-57c-0.1-0.1-0.2-0.3-0.3-0.4c0,0.1,0,0.1,0,0.2C356.3,398.8,355.6,398.5,355,398.1z"/>
<path fill="none" stroke="#000000" stroke-miterlimit="10" d="M338.9,426.8c-4.3,0.3-6.1,2.2-6.1,5.3c0,3.3,3.7,0.1,4.6,2.3
	c0,0.2-0.1,0.7-0.1,0.7c-7-0.3-7.2,5.4-8.7,9.9c-0.4,1.8-1,3.5-1.5,5.2c-3.7,8.8-7.4,17.6-11.1,26.4c0,0-0.1,0.1-0.2,0.1
	c0,0,0,0,0.1,0c-0.6,2-1.2,4.1-2.7,5.7c-0.3,0.5-0.7,1-1,1.5c2.6,2.4,1.3,5,0.4,7.6c-4,10.1-7.5,20.3-11.6,30.3
	c-0.6,1.4-0.5,2.9-1.1,4.3c0,0.1-0.1,0.2-0.1,0.2c1.2,0,2.4,0,3.4,0.9l0,0c17.8,5,35.9,8.3,53.9,12.2c0.2-0.2,0.5-0.2,0.8-0.1
	c0.1-0.2,0.2-0.4,0.2-0.6c0-0.1,0-0.1,0-0.2c-0.3-14-1.5-27.9-1.1-41.9c0-1.3,0-2.7-0.1-4c-1.1-22.7-2.7-45.4-4.9-68
	c-0.8-8.1-0.9-16.3-2.9-24.2c0,0,0-0.1-0.1-0.2c0,0.1,0,0.1-0.1,0.2c-0.3-0.3-0.6-0.6-0.9-0.8c-0.1,0-0.2,0-0.3,0
	c-4.7,0-7.7,1.7-8.4,7c-0.5,4-2.2,7.8-3.3,11.7c0,0,0,0,0,0.1C336.8,421.2,332.3,425.1,338.9,426.8z M335,451.6
	c-2.2,1.3-3.6,0.9-5.5,0.4C331.2,449.9,332.7,450.6,335,451.6z M342.3,517.1c-3.1,7.4-8.1,10-15.9,8.4c-6.3-1.3-9.4-5.7-9.5-13.3
	c-0.1-4.2,0.6-8.3,1.9-12.3c2.8-8.5,7.3-11.1,15.9-9.6c7.3,1.3,10.3,5.6,10.2,14.7C344.7,508.8,344,513.1,342.3,517.1z M346.4,464.6
	c-3.5,0.8-5.5,0.2-7.9-1.6C341.6,462.1,343.5,463.2,346.4,464.6z"/>
<path fill="none" stroke="#000000" stroke-miterlimit="10" d="M269.9,463.2c1.7,6.7,4.4,12.3,12.4,12c0.2,0,0.4-0.1,0.6-0.1
	c11,0.5,22,1.1,32.9,1.6c0,0,0.1-0.1,0.2-0.1c3.7-8.8,7.4-17.6,11.1-26.4c-2.3-0.6-1.7-2.5-2-4.1c-4.5-23-9.9-45.8-16.2-68.4
	c-0.6-2.2-1.8-4.3-2.8-6.4c0.1,0,0.1-0.1,0.2-0.1c-0.1,0-0.1,0-0.2-0.1c-8.7,0-8.5,0-10.2,8.6c-2.7,14.2-6.4,28-12.4,41.2
	c0,0-0.1,0-0.1,0c0,0.1,0.1,0.2,0.1,0.4c-0.8,1.7-1.6,3.5-2.4,5.2c0,0-0.1,0.1-0.1,0.1c-2,5.6-3.9,11.2-5.8,16.7c0,0,0,0,0,0
	c0,0,0,0.1,0,0.1c-0.2,2.1-0.8,4.1-1.9,6h0l0,0c-0.3,3.8-2.5,6.8-4.2,10c0.1,0.9,0.1,1.9,0.2,2.8c0,0.1-0.1,0.1-0.1,0.2
	c0,0,0.1,0,0.1,0C269.5,462.7,269.8,462.9,269.9,463.2z M312.4,434.7c-1.8,1-3.1,0.9-4.5-0.6C309.7,433.1,311,433.1,312.4,434.7z
	 M302.5,411.6c-1.9,2.3-3.4,1.9-5.8,0.6C298.9,410.8,300.4,411.2,302.5,411.6z M301.7,426.1c-1.9,1.7-3.3,1.7-5.1,0.4
	C298.1,425.1,299.6,425.4,301.7,426.1z M294.5,445.4c3.8-4.2,9.3-3.7,14.4-2.3c2.8,0.7,4.9,2.2,5.2,5.3c2.3,4.7,2.3,9.5,0.6,14.4
	c-1.7,5.1-6.2,7.7-12.7,7.5c-5.7-0.2-8.4-2.1-10.1-7.6c0,0,0-0.1,0-0.1C289.8,456.4,290.2,450.2,294.5,445.4z"/>
<path fill="none" stroke="#000000" stroke-miterlimit="10" d="M130,541.9c22.3,5,43.7,13,65,21.1c28.2,10.7,57.3,18.4,86.8,24.5
	c33.9,7.1,67.7,14.6,101.2,23.1c1.6,0.4,3.2,1.1,4.9,0.5c0,0,0,0,0.1,0c0,0,0-0.1-0.1-0.1c0.1-14.4,0.2-28.8,0.4-43.2
	c0-2.2-0.1-4.3,0.9-6.3c0.2-0.2,0.4-0.3,0.6-0.5c-1.7-2.4-4.5-2.6-7.1-2.9c-10.1-1.5-19.9-4-29.9-5.7c-22-3.6-43.9-7.4-65.9-11.1
	c-20.7-3.4-41.2-7.7-61.3-13.6c-16.4-4.8-32.2-11.7-48.1-17.9c-13.8-5.4-27.9-10-42.4-13.1c-3.6-0.7-7.5-2.3-11,0.6
	c-2.8,1.1-1.9,3.6-2,5.6c-0.6,12.9,1.5,25.8,1.2,38.7C125.6,540.1,127.8,541.4,130,541.9z"/>
<path fill="none" stroke="#000000" stroke-miterlimit="10" d="M488.9,474.5c0.1-1.9,0.3-3.8-1.7-4.9c-4.1-2.2-8.3-3.6-12.7-0.6
	c-2.4,1.8-4.2,4.1-6.4,6.1c0,0,0,0.1,0.1,0.1c-4.4,7.6-9,15.2-13.3,22.9c-2.6,4.7-7.3,3.7-11.8,5.6c0.7-2.4,2.3-2.5,3.4-3.1
	c1.9-1.1,3.7-1.8,0.1-3.1c-2-0.7-0.3-1.8,0.2-2.6c3.3-4.6,6.6-9.2,9.9-13.8c0.8-1.2,3.4-2.3,1.2-4c-1.8-1.4-4.3-1.3-5.6,1.1
	c-1.3,2.3-2.3,4.8-3.4,7.2c-2.3,5.3-5,10.4-8.5,15.1c-1.3-0.7-0.5-1.5-0.5-2.2c0-1,0.1-2.2-1.3-2.1c-1,0-1.3,0.9-1.4,1.8
	c-0.1,0.8-0.2,1.7-0.1,2.5c0.6,4.1-1.5,5-5.2,5.2c-9.3,0.7-18.5,1.7-27.8,2.7c-0.6,0-1.2,0.6-1.7,0.9c-0.3-0.4-0.5-0.9-0.8-1.3
	c-0.3,0.4-0.6,0.9-0.8,1.5c-0.2,2.2,0.3,4.1,2.2,5.4c0.4,0.1,0.8,0.2,1.2,0.3c-0.1-0.2-0.1-0.4-0.2-0.6c0.4-1.6,1.5-2.1,3-1.7
	c1.2,0.3,1.1,1.5,1.2,2.4c0.2,3.6,1.1,7,3.2,10.1c1.9,2.7,0,5.3-1.2,7.8c0,0-0.1,0-0.1,0c0,0.1,0,0.1,0,0.2
	c4.6-1.9,9.4-3.5,13.8-5.8c6.2-3.2,11.2-7.7,13-14.9c1.4-5.6,4.6-7.7,10.4-7.3c2.4,0.2,3,1,1.8,3.1c-5,8.4-10.1,16.6-18.5,22.5
	c-13.9,9.7-27.8,19.3-40.8,30c-0.2,0.2-0.4,0.3-0.6,0.5c-1,2-0.9,4.1-0.9,6.3c-0.2,14.4-0.3,28.8-0.4,43.2c0,0,0,0.1,0.1,0.1
	c0.1,0.1,0.3,0.1,0.4,0.2c14.3-14.4,29.4-28.2,44.7-41.5c10.1-8.7,16.3-20.5,23.5-31.4c5-7.7,10-15.3,16.7-21.6
	c3.9-3.6,8.1-6.2,13.6-6.3c0,0,0.1-0.1,0.1-0.1C488.5,498.5,488,486.4,488.9,474.5z"/>
<path fill="none" stroke="#000000" stroke-miterlimit="10" d="M456.6,538.4c-7.2,10.9-13.4,22.7-23.5,31.4
	c-15.3,13.3-30.4,27.1-44.7,41.5c-0.1,0.1-0.1,0.1-0.2,0.2c-2.1,13.7-0.3,27.6-1.4,41.5c-0.1,1.1-0.8,2.8,1.1,3.4l0,0
	c1.2-1.3,2.5-2.6,3.7-4C422,617.6,452.4,582.7,483,548c2.6-2.9,3.4-6,3.1-9.6c0-0.1,0.1-0.2,0.1-0.3c0.1-8.1-0.9-16.3,0.6-24.4
	c0.1-0.4,0.1-0.8,0.2-1.2c0-0.6,0-1.3,0-2c0,0-0.1,0-0.1,0c-5.4,0.1-9.7,2.7-13.6,6.3C466.6,523.1,461.6,530.7,456.6,538.4z"/>
<path fill="none" stroke="#000000" stroke-miterlimit="10" d="M393.4,478.3c-0.1-0.2-0.2-0.4-0.2-0.6c0,0.2,0.1,0.3,0.1,0.5
	c-1.4-0.7-1.5-2-1.2-3.3c0.6-2.8-1.2-2.5-2.8-2.5c-0.1,0-0.1,0.1-0.2,0.1c0.3,5.9,4,10.6,5.4,16.2c1.7,6.6,3.6,13.3,7.1,19.3
	c0.3,0.4,0.5,0.9,0.8,1.3c0.5-0.3,1.1-0.9,1.7-0.9c9.3-1,18.5-2,27.8-2.7c3.7-0.2,5.8-1.1,5.2-5.2c-0.1-0.8,0-1.7,0.1-2.5
	c0.1-0.9,0.4-1.8,1.4-1.8c1.4-0.1,1.3,1.1,1.3,2.1c0,0.7-0.8,1.5,0.5,2.2c3.5-4.7,6.2-9.8,8.5-15.1c1.1-2.4,2.1-4.9,3.4-7.2
	c1.3-2.4,3.8-2.5,5.6-1.1c2.2,1.7-0.4,2.8-1.2,4c-3.3,4.6-6.6,9.2-9.9,13.8c-0.5,0.8-2.2,1.9-0.2,2.6c3.6,1.3,1.8,2-0.1,3.1
	c-1.1,0.6-2.7,0.7-3.4,3.1c4.5-1.9,9.2-0.9,11.8-5.6c4.3-7.7,8.9-15.3,13.3-22.9c0,0,0-0.1-0.1-0.1c-1.8-5.4-5.5-7.4-11.3-6.9
	c-5.4,0.5-10.9,1.5-15.9,2.9c-4.9,1.4-10.5-0.4-14.8,3.2c0,0-0.1,0-0.1,0c0,0,0,0,0,0C415.8,481.1,405.2,484.1,393.4,478.3z"/>
<path fill="none" stroke="#000000" stroke-miterlimit="10" d="M308.9,377.7c6.3,22.6,11.7,45.4,16.2,68.4c0.3,1.6-0.3,3.5,2,4.1
	c0.5-1.7,1.1-3.4,1.5-5.2c1.5-4.5,1.7-10.2,8.7-9.9c0,0,0.1-0.5,0.1-0.7c-0.9-2.2-4.6,1-4.6-2.3c0-3.1,1.8-5,6.1-5.3
	c-6.6-1.7-2.1-5.6-2.8-8.4c0,0,0,0,0-0.1c-0.9-1.4-2.1-2.6-2.8-4c-6.5-13.7-12.6-27.7-20.4-40.8c-2.1-3.4-3.5-4.3-6.6-2.3
	c-0.1,0-0.1,0.1-0.2,0.1C307.1,373.4,308.3,375.5,308.9,377.7z"/>
<path fill="none" stroke="#000000" stroke-miterlimit="10" d="M455.2,450.4C455.2,450.4,455.2,450.3,455.2,450.4
	c-2,1.8-0.2,5.4-3,6.9c0.1,3.6-0.2,6.6-5.2,4.7c-1.2-0.5-2.2,0.2-3.3,0.6c-2.7,0.9-5.4,1.9-8.1,2.3c-6.1,0.9-12.6,2.3-15-6.8
	c-2,3.7,0.4,5.2,2.4,7.3c-5.9,1.1-11.3,1.9-16.7,2c0.1,0,0.1-0.1,0.2-0.1c-0.1,0-0.3,0.1-0.4,0.1c-2.8,2.5-6.5,3.1-9.7,4.9
	c-2.3,1.3-3.8,2.8-3.2,5.4c0.1,0.2,0.1,0.4,0.2,0.6c11.8,5.8,22.4,2.8,32.6-4c0,0,0,0,0,0c0.8-3.4,2.6-4.6,6.4-4.5
	c8.5,0.1,16.8-1.4,24.9-4.2c0.1-0.1,0.1-0.1,0.1-0.2c-0.1,0-0.2,0-0.2,0c0-0.7,0-1.3,0-2c-2.2-4.1,0.1-7.9,1.1-11.8c0,0,0-0.1,0-0.1
	c-0.1,0-0.1,0-0.2,0C457.3,450.6,456.2,450.5,455.2,450.4z"/>
<path fill="none" stroke="#000000" stroke-miterlimit="10" d="M410.1,419.3c0,0-0.1,0.1-0.1,0.1c-2.3,0.1-4.6,0.4-6.9,0.1
	c-4-0.6-6.3,0.9-7,4.8c0,0.1,0,0.1,0.1,0.2c3.7,2.4,8.5,2,11.9,5c0,0,0,0,0,0c5.6,3.2,9.6,8.2,12.8,13.4c1.9,3-2.4,3.6-4.8,4.5
	c-0.4,0.4-0.8,0.8-1.1,1.2v0l0,0c2.7,1.6,4.8-0.6,7.2-1.2v0c0.8-0.8,1.9-2,3-1.1c7.8,6.7,17.9,7.6,27,11c0,0,0,0,0,0
	c2.8-1.5,1-5.2,3-7c0-0.3,0-0.6,0-0.9c-1.5-4.7-6.6-3.1-9.4-5.6c-0.9-0.8-2.3-1-3.5-1.5v0l0,0c-3.1-1.8-6.1,0.3-9.1,0.1
	c-3-0.2-6.1,0.7-8.9-0.8c-0.1,0-0.1,0-0.2,0c-3-1-4-3.2-3.8-6.2c0.1,0,0.1,0,0.2-0.1c-0.1-0.1-0.1-0.2-0.2-0.2
	c-3-3.5-4.5-7.7-6.2-11.9c0,0.1,0,0.1,0,0.2C412.9,421.8,412.9,419.2,410.1,419.3z"/>
<path fill="none" stroke="#000000" stroke-miterlimit="10" d="M225.7,451.3c-2.1-1.6-3.8-3.6-6.6-3.8c2.1,2.7,2.3,5.7,2.1,8.9
	c0,0.1,0,0.2,0,0.2c0.9,5.4,1.4,10.8,4.5,15.6c1,1.7,1.7,4,0.4,6.1c3.1,0.8,4.6-1.7,6.4-3.6c2.3,3.1-3.1,4-1.3,6.7c0,0,0.1,0,0.1,0
	c0,0-0.1-0.1-0.1-0.1c0.4-0.2,0.9-0.7,1.3-0.6c8.3,1.7,15.9-1.3,23.7-3.1c0,0,0,0,0.1,0c0,0,0,0,0,0c1.8-2.8,5.2-1.9,7.6-3.3
	c-2.2-1.9-5.3-0.2-7.5-1.9l0,0c-2.7-0.7-5.5-1.3-8.2-2c-0.1,0-0.2,0-0.3,0c-4.9-0.1-9.8,0-14.7-0.2c-3.4-0.1-7.3-4.9-7.7-9.2
	c-0.3-3.7,3-3,4.9-3.7c3.1-1.2,3-2.7,1.1-4.8c-1-1.1-2.2-2-3.3-3c0,0-0.1,0-0.1,0C228.5,451.7,228.1,453.1,225.7,451.3z"/>
<path fill="none" stroke="#000000" stroke-miterlimit="10" d="M302.1,316.5c0.5-5.6,0.5-11.5,4.5-16c4.8-5.3,9.2-11,15.1-15.2
	c7.5-5.5,11.6-12.5,10.3-22.2c-0.3-2-0.3-4-0.4-6c-0.9-13.5-3.2-27.1,0-40.7c0.2-0.9,0.2-1.7-1.2-1.9c-4.6,8.1-8.3,16.4-10.1,25.7
	c-2.2,11-5.3,21.7,1.2,32.3c0.5,0.9,0.4,2.3,0.4,3.4c-0.1,3.3-1.2,5.5-4.7,7.2c-7.2,3.5-11.8,10.1-17.3,15.6
	c-0.4,0.4-0.5,1.3-0.5,1.9c0,6.7-0.7,13.4,2.5,19.9C301.9,319.1,301.8,317.8,302.1,316.5z"/>
<path fill="none" stroke="#000000" stroke-miterlimit="10" d="M361.8,303.5c0.8-2.7,2.3-3.9,4.8-5.1c8.7-4,17.8-5.1,27.1-5.6
	c2-0.1,3.9-0.4,5.1-2.4c1.9-3.3,4.4-6.3,5.7-9.8c0,0,0.1-0.1,0.1-0.1c2.6-4.1,6.9-7.4,5.3-13.2c-1.9-7-3.5-14.2-5.6-21.2
	c-1.4-4.4-0.4-7.8,2.2-11.5c10.4-14.7,20.5-29.5,30.8-44.2c1.6-2.4,2.1-4.6,1.4-7.5c-1.7-6.7-3.1-13.6-4.6-20.4
	c-3.1-13.8-6.2-27.6-9.4-41.4c-0.3-1.4-0.1-4-2.6-3.3c-3.5,0.9-7.3,1.9-7.5,6.7c-0.1,2.4-0.2,4.7-0.6,7c-2.1,12.9-1.3,26.2-5.5,38.9
	c-7.8,23.5-15.6,47.1-23.4,70.6c-0.9,2.6-2.1,5.3-0.3,8.1c2.5,3.8,4,8.1,7.1,11.4c5.4,8,6.3,16.8,4.2,26.1c-0.3,1.2,0.3,3.1-1.3,3.4
	c-3.5,0.8-7.8,2.5-10.6,0.1c-4.4-3.8-8.3-2.5-12.7-0.9c-15.1,5.5-15.2,5.5-15.2,21.7c0,4.2,0.2,8.4,2.4,12.3
	C359.1,316.5,359.9,309.9,361.8,303.5z"/>
<path fill="none" stroke="#000000" stroke-miterlimit="10" d="M254,456.6C254,456.6,254,456.5,254,456.6c-1.4-1.7-1.1-3.7-1-5.6
	c0-1.2-0.4-2.9,1.5-3c1.5-0.1,2.3,1.1,2.7,2.4c0.3,1.5,0.5,3.2,0.8,4.8c0,0,0,0,0,0c2.2,0.3,3.7-0.5,4.1-2.8
	c-0.7-1.7-1.7-4.3,0.4-4.6c2.9-0.5,6-3.6,9-0.4c2.1-0.7,1.3,1.2,1.8,2h0c1.1-1.9,1.7-3.9,1.9-6c0,0,0-0.1,0-0.1
	c-2.5-0.9-4.4-3.1-7.7-1.6c-2.5,1.1-2.9-1.9-3-3.5c-0.4-3.9-0.3-7.8-0.4-11.8c-0.7-0.3-1.4-0.6-2.1-0.9c0,0,0-0.1,0-0.1
	c-1.3,0.1-2.1-2.2-3.4-0.8c-1,1-0.4,2.5,0.1,3.7c1,2.1,1.6,4.3,1.4,6.6c-0.1,1.6,0,3.6-1.6,4.4c-1.9,1-2.5-1.5-3.8-2.1c0,0,0,0,0,0
	c-4.4,4-8.6,4.3-12.7,0.8c-0.4,0.3-0.8,0.6-1.2,0.9v0c4.2,6.2,8.5,12.2,11.8,18.9c0.2,0.3,0.9,0.3,1.4,0.4c0,0,0.1-0.1,0.1-0.1
	c0,0-0.1,0-0.1,0C254,457.6,254,457.1,254,456.6z"/>
<path fill="none" stroke="#000000" stroke-miterlimit="10" d="M180.1,462.4c0,0,0.1,0.1,0.1,0.1
	C180.2,462.5,180.2,462.4,180.1,462.4c5.5,1.5,10.6,3.9,15.4,6.8c2.1,1.3,4.4,2.4,4.7,5.2c-0.1,0.1-0.1,0.1-0.2,0.2
	c0.1,0,0.1,0,0.2-0.1c4.9-3.7,4.9-3.7,0.4-7.8c-2.8-2.5-5.5-4.9-7.6-7.9c-1.3-1.8-2.9-3.4,0.2-5.2c2.1-1.3,0.7-2.9-0.4-4.2
	c-4.9-5.6-7.7-12.3-9.4-19.5c-0.3-1.3,0.2-3.3-2.1-3.4c-0.4,8.2,1.6,15.8,5.6,22.8c2,3.5,0.8,4.6-2.6,5.5c-2.9,0.9-6.7-1-9,2.4
	c0,0.1,0,0.1,0,0.2c-0.1,0.3-0.1,0.6-0.2,0.9c0,0.1,0,0.1-0.1,0.2C175.7,461.1,178.3,461.3,180.1,462.4z"/>
<path fill="none" stroke="#000000" stroke-miterlimit="10" d="M403.2,445.4c0,0,0,0.1,0,0.1c3,0.5,4.3,3.4,6.7,4.7
	c2,0.5,3.7,0,5.1-1.6v0c0.3-0.4,0.7-0.8,1.1-1.2c-2.7-6-6-11.7-8-17.9c-3.4-3-8.2-2.6-11.9-5c0-0.1-0.1-0.1-0.1-0.2c0,0,0,0.1,0,0.1
	c-2.3-2.5-4.4-5.2-3-9c-2.8,2.1-1.6,5.3-1.8,8c0.7,7.3,5.2,12.6,10,17.6C402.5,442.3,403.3,443.7,403.2,445.4z"/>
<path fill="none" stroke="#000000" stroke-miterlimit="10" d="M467.5,379.8c-2-0.4-2.4,1.3-2.9,2.7c-3.2,10-8.3,19.1-15.8,26.5
	c-3.7,3.7-6.2,6.5-0.6,10.4h0c-0.9,4.9-2.9,9.2-7.2,12.1v0c3.7,3.2,4.6,6.7,1.3,10.8v0c1.2,0.5,2.6,0.7,3.5,1.5
	c2.8,2.5,7.9,0.9,9.4,5.6c1.6,0,3.3,0,4.9,0c0.7-1.4,1-2.8,0.4-4.3c-2.2-6.1-1.3-12.2-1.4-18.4c0,0-0.1-0.1-0.1-0.1
	c-2.4-1.2-4.9-2.5-7.3-3.7c-1.5-0.7-2.9-1.5-2.7-3.5c1.6-2.5,3.8-0.8,5.7-0.7c1.8,0.1,3.5,0.5,5.3,0.7c0,0,0.1,0,0.1,0
	c2.5-2.4,2.2-5.5,2-8.4c-0.5-8.6,1.1-16.8,3.8-25c0-0.2,0.1-0.4,0.1-0.6c0.4-1.3-0.4-3,1.4-4.3c1.8,4.1-0.2,8.6,1.6,12.4
	c0-3.4,0.1-6.9,0.1-10.4C469.1,381.8,469.1,380.2,467.5,379.8z"/>
<path fill="none" stroke="#000000" stroke-miterlimit="10" d="M214.2,483.1C214.2,483.1,214.2,483.1,214.2,483.1
	c2,1.4,4.4,2.2,5.9,4.3c0,0,0,0.1,0.1,0.1c0,0,0-0.1,0-0.1c5.4,2.5,9.4,7.3,14.7,9.9c0,0,0,0,0.1,0c1.2,0.5,2.3,0.9,3.4,1.2
	c4.5-3.3,4.7-4.6,0.8-8.4c-2.8-2.8-5.7-5.3-7.9-8.7c0,0-0.1,0-0.1,0c-1.8-2.7,3.6-3.6,1.3-6.7c-1.8,1.9-3.3,4.4-6.4,3.6
	c-3.9,1.1-8.3-0.2-11.8,2.7c-0.1,0.1-0.2,0.2-0.2,0.3c-0.4,0.3-0.7,0.7-1,1c0,0,0,0.1,0,0.1c0,0,0,0,0,0
	C213.5,482.6,213.8,482.9,214.2,483.1z"/>
<path fill="none" stroke="#000000" stroke-miterlimit="10" d="M215,424.6c0.4,1,1.4,1.8,2,2.8c3.7,6.1,2.2,9.3-4.8,9.9
	c-2.3,0.2-4.6,0.2-6.9,0.2c0.2-0.3,0.5-0.5,0.8-0.6c-0.3,0.1-0.6,0.3-0.9,0.6c-0.7,3,0.4,4.4,3.4,5.4c3.6,1.2,6.9,3,10.4,4.6
	c0,0,0.1,0,0.1,0c2.8,0.2,4.5,2.2,6.6,3.8c2.4,1.8,2.8,0.4,2.4-1.8c0,0,0,0,0,0c-2-2.6-3.9-5.2-6.2-7.9c-1.9-2.3-2.9-4.3,0.6-6.3
	c1.8-1,1.8-2.7,0.4-4.2c-5.7-5.8-8.5-13.2-10.6-20.8C210.1,415.7,213.3,420,215,424.6z"/>
<path fill="none" stroke="#000000" stroke-miterlimit="10" d="M243.7,432.2c4.1-0.6,8.6-1.6,11.4,3c1.1-2.7-1.9-3.9-2.2-6
	c-0.4-2.4-3-5.2,2.1-6.1c2-0.2,0.7-3.1,0.9-4.7c-2.6-0.7-5-2.2-7.8-2c0,0,0-0.1,0.1-0.1c-0.1,0-0.1,0.1-0.2,0.1c-0.3,0-0.5,0-0.8,0
	c-1.1,2.8-4.2,1.5-6,2.9h0l0,0c-0.3,1.6-1.6,1.9-3,2c0,0,0,0-0.1,0c0,0,0,0.1,0.1,0.1c2.2,1.7,1.6,3.2-0.2,4.5c2,0.8,2,2.6,2.1,4.4
	c0.3,2.9-0.5,5.8,0.7,8.6l0,0c0.4-0.3,0.8-0.6,1.2-0.9C242.9,436.1,240.3,432.8,243.7,432.2z"/>
<path fill="none" stroke="#000000" stroke-miterlimit="10" d="M396.1,424.4C396.1,424.4,396.1,424.3,396.1,424.4c0.7-4,3-5.5,7-4.9
	c2.3,0.3,4.6,0,6.9-0.1c0,0,0.1-0.1,0.1-0.1c0,0-0.1,0-0.1,0c-0.7-6.7-1.9-13.2-5.9-18.9c-2.7,0.7-3,3.3-3.9,5.3
	c-0.8,2.2-1.9,4.2-3.9,5.7c-0.1,0.1-0.2,0.2-0.2,0.3c-1,1.1-1.9,2.3-2.9,3.5c0,0.1-0.1,0.2-0.1,0.2
	C391.7,419.2,393.8,421.8,396.1,424.4z"/>
<path fill="none" stroke="#000000" stroke-miterlimit="10" d="M174.1,480.2c0.1,0,0.1-0.1,0.2-0.1c2.3-3.4,6.1-1.5,9.1-2.4
	c3.2-1,4-1.8,2-4.6c-2.3-3.3-4-6.8-5.2-10.6c0,0-0.1-0.1-0.1-0.1c-1.9-1.1-4.5-1.3-5.1-3.9c0-0.1,0-0.1,0-0.2
	c-0.3,1.1-0.5,2.3-0.9,3.3c-1.8,5-2.8,10.3-6,14.7c0,0,0,0,0,0.1C167.9,481.2,171.2,480.3,174.1,480.2z"/>
<path fill="none" stroke="#000000" stroke-miterlimit="10" d="M395.8,447.9c2.6-0.3,5.1-1,7.3-2.4c0,0,0,0,0.1,0c0,0,0-0.1,0-0.1
	c0.1-1.7-0.7-3.1-1.9-4.4c-4.8-5-9.3-10.3-10-17.6c0,0,0,0,0,0c0,0,0,0,0,0.1c0,0.1,0,0.2,0,0.3c0.3,7.2-0.6,13.8-6.1,19.3
	c-2,2,0.1,3.3,1.5,4.8c1.1,1.2,4.6,0.4,3.3,3.7c0,0,0,0.1,0,0.1c0.7,0.3,1.3,0.5,2,0.8C392,449.8,392.9,448.2,395.8,447.9z"/>
<path fill="none" stroke="#000000" stroke-miterlimit="10" d="M184.3,454.8c3.4-0.9,4.6-2,2.6-5.5c-4-7-6-14.6-5.6-22.8
	c-2.5,7.5-2.6,15.9-7.1,22.5c-2.6,3.8-2.4,6,1,8.4c0-0.1,0.1-0.1,0.1-0.2C177.6,453.8,181.4,455.7,184.3,454.8z"/>
<path fill="none" stroke="#000000" stroke-miterlimit="10" d="M194.9,480.5c2.8,0.4,4.6,2,5.1,4.7c0.5,3-1.3,4.6-3.8,5.6
	c-3.5,1.4-7.3,1.6-11,1.7c0,0,0,0.1-0.1,0.1c1,0.3,2,0.6,3,0.9c0.1,0,0.2,0,0.3,0c-0.1,0-0.3-0.1-0.4-0.1c4.8,0,9.7-0.2,14.4,0.2
	c4.7,0.4,7.5-1.4,9-5.8c0.6-1.7,1.8-3.1,2.7-4.7c0,0,0.1,0,0.1,0.1c0,0,0,0,0-0.1c-0.4-0.2-0.7-0.5-1.1-0.7c0,0,0,0,0,0
	c-7.5-1.8-14.9-3.9-22.6-3c-0.1,0-0.1-0.1-0.2-0.1c-0.4,0-0.8,0-1.1,0C190.8,480.9,192.9,480.2,194.9,480.5z"/>
<path fill="none" stroke="#000000" stroke-miterlimit="10" d="M195.5,469.2c-4.8-2.9-9.9-5.3-15.3-6.8c0,0,0,0.1,0,0.1
	c1.2,3.8,2.9,7.3,5.2,10.6c2,2.8,1.2,3.6-2,4.6c-3.1,0.9-6.8-1-9.1,2.4c0,0,0,0.1-0.1,0.1c2.6,0.1,5.3,0.1,7.9,0.2l0,0v0
	c2.6,1.1,4.5-2.2,7.1-1.1l0,0c0.4,0,0.8,0,1.1,0c0,0,0,0,0.1,0c2.4-3.1,7-2,9.6-4.7c0.1-0.1,0.1-0.1,0.2-0.2
	C199.9,471.6,197.6,470.5,195.5,469.2z"/>
<path fill="none" stroke="#000000" stroke-miterlimit="10" d="M433,441.4c-2.9,0.1-5.9,0.1-8.7,0.2c2.8,1.5,5.9,0.6,8.9,0.8
	c3,0.2,6-1.9,9.1-0.1l0,0c3.3-4.1,2.4-7.6-1.3-10.8l0,0c-4.7-4.3-6.1-10.2-7.6-15.9c-0.3-1.1-0.4-2.6-2.1-2.2
	c-1.3,0.3-1,1.5-1.1,2.5c-0.1,0.8,0,1.7,0,2.5c0,0.1-0.1,0.3-0.1,0.4c-0.1,6.5,1.8,12.5,5.3,17.9C437.5,439.9,436.5,441.2,433,441.4
	z"/>
<path fill="none" stroke="#000000" stroke-miterlimit="10" d="M467.4,381.1c-1.8,1.3-1,3-1.4,4.3c0,0.2-0.1,0.4-0.1,0.6
	c0.1-0.2,0.2-0.5,0.2-0.7c-0.6,10.1-0.3,20.1,1.8,30.1c0.4,1.8-0.5,3.3-0.8,4.9c0.6,1,1.3,2,1.9,3.1c0.4-1.5,1.6-2,3-2
	c5.4,0.1,5.2-2.4,3.2-6.2c-3.6-6.8-6-13.9-6.2-21.7C467.2,389.7,469.2,385.2,467.4,381.1z"/>
<path fill="none" stroke="#000000" stroke-miterlimit="10" d="M424.1,441.6c0.1,0,0.1,0,0.2,0c2.8-0.1,5.8-0.1,8.7-0.2
	c3.5-0.2,4.5-1.5,2.4-4.7c-3.5-5.4-5.4-11.3-5.3-17.9c0-0.1,0-0.3,0-0.4c-0.8,2.6-1.4,5.3-2.4,8c-1.6,3.6-3,7.5-7.2,8.9
	c-0.1,0-0.1,0-0.2,0.1C420.1,438.4,421.1,440.6,424.1,441.6z"/>
<path fill="none" stroke="#000000" stroke-miterlimit="10" d="M460.1,419.4C460.1,419.4,460.1,419.4,460.1,419.4c0,0-0.1,0-0.1,0
	c-1.8-0.2-3.5-0.6-5.3-0.7c-1.9-0.1-4.1-1.8-5.7,0.7c-0.2,2,1.2,2.8,2.7,3.5c2.4,1.2,4.9,2.5,7.3,3.7c0,0,0.1,0.1,0.1,0.1
	c0,0,0-0.1,0-0.1c1.9,0.4,3.2,1.7,4.7,2.7c2.3-1.5,3.7,0,4.9,1.9c1.2,2,2.3,4,4.5,5.1c-2.3-4-3.2-8.5-4.2-12.9
	c-0.6-1.1-1.3-2.1-1.9-3.1C464.8,420.2,462.3,420.7,460.1,419.4z"/>
<path fill="none" stroke="#000000" stroke-miterlimit="10" d="M273.3,449.4c-0.5-0.8,0.3-2.7-1.8-2c-3.1,1.7-6.2,3.3-9.4,5
	c-0.4,2.3-2,3.1-4.1,2.8c-1.3,0.5-2.6,0.9-3.9,1.4c0,0,0,0-0.1-0.1c0,0,0,0,0,0.1c0,0.5,0,1,0,1.5c0,0,0.1,0,0.1,0
	c1.9,0.6,3.9,0,5.7,1.3c3,2.2,6.2,1.8,9.3,0c0,0,0,0,0,0C270.8,456.2,273,453.2,273.3,449.4L273.3,449.4z"/>
<path fill="none" stroke="#000000" stroke-miterlimit="10" d="M270.7,421.9c-1.6,0.6-2.3-0.2-2.6-1.7c-0.4,0.1-0.8,0.1-1.2,0.2
	c-0.8,2.5-4.3,2.3-4.9,5c0,0,0,0,0,0c0,0,0,0.1,0,0.1c0.7,0.3,1.4,0.6,2.1,0.9c2.4-1.8,5.2-0.8,7.1,0.2c3.6,2,6.7,2.2,9.9-0.3
	c0,0.1-0.1,0.2-0.1,0.3c0,0,0.1-0.1,0.1-0.1c0.8-1.7,1.6-3.5,2.4-5.2c0-0.1-0.1-0.3-0.1-0.4c-0.9-3.1-3.7-2.3-6-2.6
	c-0.1,0-0.2,0-0.3,0C275.5,420.3,273.1,421.1,270.7,421.9z"/>
<path fill="none" stroke="#000000" stroke-miterlimit="10" d="M210.3,409.4c0,5.1-0.6,10.2,0.6,15.3c0.8,3.3,2.9,6.6,1.8,10
	c-1,2.9-4.5,1.1-6.6,2.2c-0.3,0.1-0.5,0.3-0.8,0.6c2.3,0,4.6,0,6.9-0.2c7-0.6,8.5-3.8,4.8-9.9c-0.6-1-1.6-1.8-2-2.8
	c-1.7-4.6-4.9-8.9-2.7-14.3c0,0,0-0.1,0-0.1c-0.1-1-0.2-1.9-0.2-2.8v0C211.1,407.6,210.3,408.3,210.3,409.4z"/>
<path fill="none" stroke="#000000" stroke-miterlimit="10" d="M226.1,478.3c1.3-2.1,0.6-4.4-0.4-6.1c-3.1-4.8-3.7-10.2-4.5-15.6
	c0-0.1,0-0.2-0.1-0.3c-1.9,4.9-2.7,10.1-1.8,15.1c0.8,4.9-0.6,7.3-5.3,8c0,0.1,0,0.1,0,0.2c0,0.6,0,1.2,0,1.7
	c0.1-0.1,0.2-0.2,0.3-0.3C217.8,478.1,222.2,479.4,226.1,478.3z"/>
<path fill="none" stroke="#000000" stroke-miterlimit="10" d="M255.9,418.4c3.4,2.2,7.6,0.1,11,2c0.4-0.1,0.8-0.1,1.2-0.2
	c1.9-2.1,7.1-0.7,6.1-5.7c0,0-0.1,0-0.1-0.1c-2.8,0.1-5.7-0.6-8.3,0.6c-4.1,2-8.1,2-12.3,0.1c-2-0.9-4-1.4-5.3,1.2
	c0,0,0,0.1-0.1,0.1C250.9,416.2,253.3,417.7,255.9,418.4z"/>
<path fill="none" stroke="#000000" stroke-miterlimit="10" d="M268.1,420.2c0.3,1.5,1,2.3,2.6,1.7c2.4-0.8,4.8-1.6,6.4-3.6
	c0.1-0.1,0.1-0.1,0.2-0.2c1.1-5.7-2.1-9.9-4.7-15.6c-0.8,3.2,0.3,4.8,0.6,6.5c0.4,1.8,0.7,3.5,1,5.3c0,0.1,0,0.1,0,0.2
	C275.2,419.5,270,418.1,268.1,420.2z"/>
<path fill="none" stroke="#000000" stroke-miterlimit="10" d="M230.1,421.1c-0.4-0.7-0.9-1.2-1.8-1.5c-6.3-1.9-6.6-2.4-5.7-9.1
	c0.3-2,1-4-0.2-6.4c-5.5,11.7-3.8,16.1,6.6,19.3C229.4,422.6,229.8,421.9,230.1,421.1L230.1,421.1z"/>
<path fill="none" stroke="#000000" stroke-miterlimit="10" d="M238.2,421.4c0,0,0-0.1-0.1-0.1c-0.7-0.3-1.4-0.6-2.1-0.9
	c0,0-0.1,0-0.1,0c-2-0.3-3.9-0.2-5.8,0.7l0,0c-0.3,0.8-0.7,1.5-1.1,2.3c2.2,3.7,5.1,4.7,8.9,2.6c0,0,0.1,0,0.1-0.1
	C239.8,424.6,240.4,423.1,238.2,421.4z"/>
<path fill="none" stroke="#000000" stroke-miterlimit="10" d="M217.7,459.9c-1-1.6-3.1-0.5-4.6-0.4c-3.8,0.3-7.5,0.9-11.2,1.4
	c0,0.1,0,0.3,0,0.5c2.4,0,4.9,0,7.3,0c4.3-1.1,5.2,1.8,6,5c0,0,0.1-0.1,0.1-0.1c0.4-0.5,0.8-0.9,1.2-1.4
	C217.6,463.4,218.8,461.6,217.7,459.9z"/>
<path fill="none" stroke="#000000" stroke-miterlimit="10" d="M416.3,415c-3.5-5-5.8-10.6-7.8-16.5c-1.1-3.3,0.2-7.5-3.2-10
	c0,0-0.1,0.1-0.1,0.1c0.2,1.4,0.2,2.8,0.5,4.2c0.7,3.1-0.3,4.7-3.5,4.6c0,0,0,0,0,0v0.1l0,0c-0.2,0.4-0.4,0.8-0.5,1.2
	c-1.8,4.3-3.8,8.6-5.7,12.9c0.1-0.1,0.2-0.2,0.3-0.2c2-1.4,3-3.5,3.9-5.7c0.9-2,1.2-4.6,3.9-5.3c4,5.7,5.2,12.2,5.9,18.9
	c0,0,0.1,0,0.1,0c2.8-0.1,2.8,2.5,4,4.1c0-0.1,0-0.1,0-0.2c0.1-1.1-0.2-2.5,1.1-2.8C419.8,419.4,418,417.4,416.3,415z"/>
<path fill="none" stroke="#000000" stroke-miterlimit="10" d="M405.7,392.8c-0.3-1.4-0.3-2.8-0.5-4.2c0,0,0-0.1,0-0.1
	c-2.5,2.5-1.5,6.1-3.1,8.9c0,0,0.1,0,0.1,0C405.4,397.4,406.4,395.9,405.7,392.8z"/>
<path fill="none" stroke="#000000" stroke-miterlimit="10" d="M219.1,447.5c0,0-0.1,0-0.1,0c-3.5-1.6-6.8-3.4-10.4-4.6
	c-3-1-4.1-2.4-3.4-5.4c0.3-0.3,0.6-0.5,0.9-0.6c2.2-1.1,5.7,0.7,6.6-2.2c1.1-3.4-1-6.7-1.8-10c-1.2-5.1-0.6-10.2-0.6-15.3
	c0-1.1,0.8-1.8,1.8-2v0l0,0c-2.7-1.6-2.8,0.4-2.9,2.1c-0.6,8.6-2.8,16.6-7.6,23.8c-0.7,1.1-1.7,2.5-0.1,3.4c4.1,2.3,2.7,5.6,1.8,8.7
	c-0.9,3.2-2.9,6.3-2.9,9.4c0,2.7-5.2,4.8-1.3,7.1c2.4,1.5,6.1,0.8,9.2,0c0.3-0.1,0.6-0.3,0.9-0.5c-2.4,0-4.9,0-7.3,0
	c0-0.2,0-0.4,0-0.5c3.7-0.5,7.4-1.1,11.2-1.4c1.5-0.1,3.6-1.2,4.6,0.4c1.1,1.7-0.1,3.5-1.2,5c-0.4,0.5-0.8,0.9-1.2,1.4
	c0,0.1,0,0.1,0,0.2c-0.1,2.2-1.4,3-3.5,3c-1.5-0.1-3.1-0.2-4.4,0.8c-0.1,0-0.2,0-0.3,0c-1.7,3.4,0.4,3.9,3,4c0,0.1,0.1,0.1,0.1,0.2
	c-0.1,2.8,0.4,5,3.8,5.1c0-0.1,0-0.1,0-0.2c4.7-0.7,6.1-3.1,5.3-8c-0.9-5-0.1-10.2,1.8-15.1c0,0.1,0,0.2,0.1,0.3c0-0.1,0-0.2,0-0.2
	C221.4,453.2,221.2,450.2,219.1,447.5z"/>
<path fill="none" stroke="#000000" stroke-miterlimit="10" d="M347.8,382.4c-0.7,2.9,1,3.5,2.9,3.9c0.2,0,0.4-0.1,0.7-0.1
	c-2.1-4-1.9-8.2-0.7-12.5c1-3.9,2.3-7.6,4-11.2c3.8-8,7.7-16.2,11.4-24.3c0.5-1.2,2-2.8-0.2-3.7c-1.5-0.6-2.9,0.3-3.6,1.9
	c-1.4,3.4-2.7,6.8-4.1,10.2c-0.3,0.9-1.1,2.6-1.3,2.5c-6.7-2.1-3.5,3.8-4.3,5.8c-1.3,3.2-1.1,6.8-1.6,10.3c-1-0.8-1-2-0.9-3.3
	c0.2-8.6,0.5-17.3,0.7-25.9c0.1-4.9,0.4-9.7,0.5-14.5c0.1-1.9-0.4-3.4-2.7-3.3c-2,0.1-3.1,1.2-3.1,3.2c0,1.3,0.2,2.7,0.3,4
	c0.5,8,0.9,15.9,1.6,23.9c0.2,2.5-0.7,4.1-2.9,5.1c0.3-0.1,0.5-0.1,0.7-0.2c-0.3,0.1-0.5,0.2-0.8,0.3c-1.3,6.5,2.5,12.4,2.1,19
	c-1.7-1.2-2-2.9-2.6-4.4c-4.5-11.6-9-23.2-13.6-34.8c-1.8-4.6-4-9.1-6.1-13.6c-0.5-1-1.2-2.3-2.6-1.6c-1.6,0.7-0.7,2-0.2,3
	c1,2.2,2,4.6,3.4,6.6c5.2,7.5,5.3,16.8,9.2,24.7c4.2,8.3,8.3,16.7,12.4,25C347.3,379.6,348.2,380.9,347.8,382.4z"/>
<path fill="none" stroke="#000000" stroke-miterlimit="10" d="M349,400.4c0-0.1,0-0.1,0.1-0.2c0.4-1,1.3-1,2.2-1.1
	c0-0.5,0.1-0.9,0.2-1.3c0.1-0.6,0.2-1,0.3-1.6c0.1-0.5,0.3-0.8,0.4-1.1c0.1-0.3,0.3-1,0.3-1.2c0.4,1.3,1.1,2.4,2,3.5
	c0.2,0.2,0.4,0.5,0.6,0.7c0.6,0.4,1.3,0.7,1.9,1.1c0-0.1,0-0.1,0-0.2c-0.3-3.6-2.4-6.5-4-9.6c0,0,0-0.1,0-0.1c0,0,0,0,0,0h0
	c-0.5-1-1.1-1.9-1.5-2.9c-0.2,0-0.4-0.1-0.6-0.1c-2-0.4-3.7-1-2.9-3.9c0.4-1.5-0.5-2.8-1.4-4c-1.6,6.8-4.3,13.5-3.8,20.7
	c3.5-3,2.6-7.7,5.3-11.7l0.1,12.1c0,0,0,0,0.1,0.1C348.4,399.8,348.7,400.1,349,400.4z"/>
<path fill="none" stroke="#000000" stroke-miterlimit="10" d="M123.3,542.8c-0.1,3.9-0.6,7.8,0.5,11.6c0,0.3,0.1,0.6,0.1,0.9
	c0.4,6.1,1,12.3,0.9,18.4c-0.1,4.6,1.5,6.7,6,8c51.8,15.3,103.6,30.9,155.4,46.3c31.4,9.4,62.9,18.7,94.3,27.9
	c2.3,0.7,4.8,3,7.4,0.5c-1.9-0.6-1.2-2.3-1.1-3.4c1.1-13.9-0.7-27.8,1.4-41.5c0.1-0.1,0.1-0.1,0.2-0.2c-0.1-0.1-0.3-0.1-0.4-0.2
	c0,0,0,0-0.1,0c-1.7,0.6-3.3-0.1-4.9-0.5c-33.5-8.5-67.3-16-101.2-23.1c-29.5-6.1-58.6-13.8-86.8-24.5c-21.3-8.1-42.7-16.1-65-21.1
	c-2.2-0.5-4.4-1.8-6.7-0.3"/>
<path fill="none" stroke="#000000" stroke-miterlimit="10" d="M247.1,416.4c-2.5,0.2-5.3-1.3-7,1.8c-1.7,0.2-3.2,0.6-4.2,2.1
	c0,0,0.1,0,0.1,0.1c0.7,0.3,1.4,0.6,2.1,0.9c0,0,0,0,0.1,0c1.4-0.1,2.7-0.4,3-2l0,0h0c1.8-1.4,4.9-0.1,6-2.9
	C247.2,416.4,247.1,416.4,247.1,416.4z"/>
<path fill="none" stroke="#000000" stroke-miterlimit="10" d="M266.2,509.4c-10.4-2.6-20.8-5.3-31.2-7.9c0.5-2,2.4-1.9,3.4-3
	c-1.1-0.3-2.2-0.7-3.4-1.2c0,0,0,0-0.1,0c0.1,0,0.1,0.1,0.2,0.1c-1.6,4.1-6.3,3.5-9,5.9l0,0c1.8,0.1,3.7,0,5.4,0.8
	c2.2,1.1,3.9,2.7,4.2,5.2c0.3,2.7-1.9,3.6-3.9,4.6c-2.5,1.3-5,2.7-7.9,2.6l0,0c13.3,4.3,25.8-0.3,38.4-3.5c2.5-0.6,4.8-1.9,7.5-1.7
	c0,0,0,0,0,0C269.4,509.2,267.6,509.7,266.2,509.4z"/>
<path fill="none" stroke="#000000" stroke-miterlimit="10" d="M398.2,527.3c0,0.1-0.1,0.1-0.1,0.1c2.3,3.8,0.9,5.8-3.1,6.5
	c-9.1,1.5-17.8,5.2-27.2,5.7c-1,0.1-2.1,0.3-2.8,0.8c-2.9,2.5-5.1,1.5-7.1-1.1c-0.3-0.1-0.6-0.1-0.8,0.1c-0.3,2.2-0.6,4.4-0.9,6.6
	c6.9-0.4,13.1-3.5,19.7-4.9c11.5-2.5,22.8-5.2,34.2-7.9c0,0,0.1,0,0.1,0c1.2-2.5,3.1-5.1,1.2-7.8c-2.1-3.1-3-6.5-3.2-10.1
	c-0.1-0.9,0-2.1-1.2-2.4c-1.5-0.4-2.6,0.1-3,1.7c0.1,0.2,0.1,0.4,0.2,0.6C405.7,520.9,406.6,526.2,398.2,527.3z"/>
<path fill="none" stroke="#000000" stroke-miterlimit="10" d="M216.1,504.4L216.1,504.4c1.1-0.4,2.1-0.9,3.3-1
	c2.3-0.4,2.7-1.3,1.8-3.4c-1.7-4-2.7-8.1-1-12.5c0,0,0-0.1-0.1-0.1c-1.5-2.1-3.9-2.9-5.9-4.2c0,0-0.1,0-0.1-0.1
	c-0.9,1.6-2.1,3-2.7,4.7c-1.5,4.4-4.3,6.2-9,5.8c-4.7-0.4-9.6-0.2-14.4-0.2c0.1,0.1,0.3,0.1,0.4,0.1c5.2,1.9,10.5,0.6,15.8,1.1
	c1.4,0.1,3.3-0.4,2.8,2.1c-1.5,7.2,5.7,9.6,8.1,14.6c0,0,0.1,0,0.1,0C215.3,509,214.5,506.5,216.1,504.4z"/>
<path fill="none" stroke="#000000" stroke-miterlimit="10" d="M196.2,490.8c2.5-1,4.3-2.6,3.8-5.6c-0.5-2.7-2.3-4.3-5.1-4.7
	c-2-0.3-4.1,0.4-5.7-1.2l0,0c-2.6-1.1-4.5,2.2-7.1,1.1v0c-0.3,0.4-0.5,0.9-0.9,1.3c-1.9,1.6-5.1,2.7-4.6,5.8
	c0.6,3.4,4.1,3.8,6.9,4.8c0.5,0.1,1,0.1,1.5,0.2c0.1,0,0.1,0,0.2,0C188.9,492.4,192.7,492.2,196.2,490.8z"/>
<path fill="none" stroke="#000000" stroke-miterlimit="10" d="M231.8,513.9c2-1,4.2-1.9,3.9-4.6c-0.3-2.5-2-4.1-4.2-5.2
	c-1.7-0.8-3.6-0.7-5.4-0.8c-3.3,1-6.6,1.3-10,1.1l0,0h0c-1.6,2.1-0.8,4.6-0.9,6.9c0,0,0,0,0,0c2,3.4,4.8,5.3,8.7,5.2h0
	C226.8,516.6,229.3,515.2,231.8,513.9z"/>
<path fill="none" stroke="#000000" stroke-miterlimit="10" d="M309.1,532.7c-3.6-1.3-6.4-1.1-9,1.6l0,0c9.3,1.6,18.4,4.4,27.9,4.2
	l0,0C321.7,536.6,315.3,534.9,309.1,532.7z"/>
<path fill="none" stroke="#000000" stroke-miterlimit="10" d="M298.2,483.3c4.6,0.2,8.9,3.1,13.6,1.4c0.1-0.3,0.3-0.5,0.4-0.8
	c0.3-0.5,0.6-1,1-1.5c1.5-1.6,2.1-3.7,2.7-5.7c0,0,0,0-0.1,0c-11-0.5-22-1.1-32.9-1.6c-0.2,0.1-0.4,0.1-0.6,0.1
	c-3.5,0.6-8.3-1.9-9.4,4.2c0.4,0.7,0.8,1.3,1.2,2c5.5-0.9,10.9-1.3,16.2,0.5c2.5,0.8,5.1,1.7,7.8,1.4"/>
<path fill="none" stroke="#000000" stroke-miterlimit="10" d="M365,540.4c0.7-0.5,1.8-0.7,2.8-0.8c9.4-0.5,18.1-4.2,27.2-5.7
	c4-0.7,5.4-2.7,3.1-6.5c0,0,0,0,0,0c-1.7,0.3-3.5,0.6-5.3,1.1c-11.5,3.4-22.9,7.4-34.6,10c0,0.1,0,0.1-0.1,0.2
	c-0.1,0.2-0.2,0.4-0.2,0.6C359.9,541.9,362.1,542.9,365,540.4z"/>
<path fill="none" stroke="#000000" stroke-miterlimit="10" d="M334.7,490.3c-8.6-1.5-13.1,1.1-15.9,9.6c-1.3,4-2,8.1-1.9,12.3
	c0.1,7.6,3.2,12,9.5,13.3c7.8,1.6,12.8-1,15.9-8.4c1.7-4,2.4-8.3,2.6-12.1C345,495.9,342,491.6,334.7,490.3z"/>
<path fill="none" stroke="#000000" stroke-miterlimit="10" d="M303.2,527.2L303.2,527.2c-1-0.8-2.2-0.8-3.4-0.9c-0.2,0-0.5,0-0.7,0
	c-4.3,0.3-5.5,4.1-5.3,6.7c0.2,3.1,3.8,0.7,5.8,1.3c0.2,0,0.3,0,0.5,0h0c2.6-2.7,5.4-2.9,9-1.6c6.2,2.2,12.6,3.9,18.9,5.8l0,0
	c8,1.6,15.9,3.3,23.9,4.8c2.1,0.3,3.2,1.4,4.3,2.9c0-0.1,0-0.1,0-0.2c0.3-2.2,0.6-4.4,0.9-6.6C339.1,535.5,321,532.2,303.2,527.2z"
	/>
<path fill="none" stroke="#000000" stroke-miterlimit="10" d="M271.2,426.6c-1.9-1-4.7-2-7.1-0.2c0.1,4,0,7.9,0.4,11.8
	c0.1,1.6,0.5,4.6,3,3.5c3.3-1.5,5.2,0.7,7.7,1.6c0,0,0,0,0,0c1.9-5.5,3.8-11.1,5.8-16.7c0-0.1,0.1-0.2,0.1-0.3
	C277.9,428.8,274.8,428.6,271.2,426.6z"/>
<path fill="none" stroke="#000000" stroke-miterlimit="10" d="M291.7,459.9c0,0.8,0.1,1.6,0.2,2.6c0,0.1,0,0.1,0,0.1c0,0,0,0,0,0
	c0,0,0,0.1,0,0.1c1.7,5.5,4.4,7.4,10.1,7.6c6.5,0.2,11-2.4,12.7-7.5c1.7-4.9,1.7-9.7-0.6-14.4c-4.6,2.1-9.8,0.5-14.6,2.6
	C294.9,453,291.8,455.4,291.7,459.9z"/>
<path fill="none" stroke="#000000" stroke-miterlimit="10" d="M291.9,462.6c0-0.1,0-0.1,0-0.1c-0.2-0.9-0.2-1.8-0.2-2.6
	c0.1-4.5,3.2-6.9,7.8-8.9c4.8-2.1,10-0.5,14.6-2.6c-0.3-3.1-2.4-4.6-5.2-5.3c-5.1-1.4-10.6-1.9-14.4,2.3
	C290.2,450.2,289.8,456.4,291.9,462.6C291.9,462.6,291.9,462.6,291.9,462.6z"/>
<path fill="none" stroke="#000000" stroke-miterlimit="10" d="M452.2,457.3C452.2,457.3,452.2,457.3,452.2,457.3
	c-9.1-3.4-19.2-4.3-27-11c-1.1-0.9-2.2,0.3-3,1.1v0c2.6,3.8-0.7,6.3-2.5,8.6c-2.2,2.8-3.8-1.1-5.8-1.3c-0.3,1-0.9,1.4-1.8,0.9
	c-5.4-3-11.2-2.5-17-1.9c-1.1-0.2-2.3-0.3-3.1-1.3c-0.7-0.3-1.3-0.5-2-0.8c0,0,0,0,0,0c-2.8-0.1-5.1,1.4-7.4,2.6
	c-0.2,0.1-0.4,0.2-0.6,0.3c0.4,1.2,1.2,1.5,2.3,1.1c3.5-1.4,7.2-1.1,10.8-1.1c0,0,0-0.1,0.1-0.1c5.1-0.7,8.8,0.6,12.3,5.1
	c3.8,5,4.3,4.8-1,7.8c-0.1,0-0.1,0.1-0.2,0.1c5.4-0.1,10.8-0.9,16.7-2c-2-2.1-4.4-3.6-2.4-7.3c2.4,9.1,8.9,7.7,15,6.8
	c2.7-0.4,5.4-1.4,8.1-2.3c1.1-0.4,2.1-1.1,3.3-0.6C452,463.9,452.3,460.9,452.2,457.3z"/>
<path fill="none" stroke="#000000" stroke-miterlimit="10" d="M447.3,505.4c-5.8-0.4-9,1.7-10.4,7.3c-1.8,7.2-6.8,11.7-13,14.9
	c-4.4,2.3-9.2,3.9-13.8,5.8c0-0.1,0-0.1,0-0.2c-11.4,2.7-22.7,5.4-34.2,7.9c-6.6,1.4-12.8,4.5-19.7,4.9c0,0.1,0,0.1,0,0.2
	c-1.1-1.5-2.2-2.6-4.3-2.9c-8-1.5-15.9-3.2-23.9-4.8l0,0l0,0c-9.5,0.2-18.6-2.6-27.9-4.2l0,0h0c-0.2,0-0.3,0-0.5,0
	c-2-0.6-5.6,1.8-5.8-1.3c-0.2-2.6,1-6.4,5.3-6.7c0.2,0,0.5,0,0.7,0c0-0.1,0.1-0.2,0.1-0.2c0.6-1.4,0.5-2.9,1.1-4.3
	c4.1-10,7.6-20.2,11.6-30.3c1-2.6,2.2-5.2-0.4-7.6c-0.2,0.3-0.3,0.5-0.4,0.8c-4.7,1.7-9-1.2-13.6-1.4h-0.1c-2.7,0.3-5.3-0.6-7.8-1.4
	c-5.3-1.8-10.7-1.4-16.2-0.5c-0.4-0.7-0.8-1.3-1.2-2c1.1-6.1,6-3.6,9.4-4.2c-8.1,0.3-10.8-5.3-12.4-12c-0.1-0.3-0.4-0.5-0.6-0.8
	c0,0-0.1,0-0.1,0c-4.2-0.3-8.1,0.2-12.4-1.7c-4.9-2.2-10.4-5.6-16.4-2.1c-1.7,1-3.7,1.5-5.6,2.1c-2.3,0.8-5.2,0.9-4.6,4.6
	c0.5,3.6,3.4,2.7,5.7,3.3c3.9,1,8.4-0.8,12,1.8c0.1,0,0.2,0,0.3,0c2.7,0.7,5.5,1.3,8.2,2l0,0c2.2,1.7,5.3,0,7.5,1.9
	c-2.4,1.4-5.8,0.5-7.6,3.3c0,0,0,0,0,0c0,0,0,0-0.1,0c-7.8,1.8-15.4,4.8-23.7,3.1c-0.4-0.1-0.9,0.4-1.3,0.6c0,0,0.1,0.1,0.1,0.1
	c2.2,3.3,5.1,5.9,7.9,8.7c3.9,3.8,3.7,5.1-0.8,8.4c-1,1.1-2.9,1-3.4,3c10.4,2.6,20.8,5.3,31.2,7.9c1.4,0.3,3.2-0.2,3.6,1.9
	c0,0,0,0,0,0c-2.7-0.2-5,1.1-7.5,1.7c-12.6,3.2-25.1,7.8-38.4,3.5l0,0h0c-3.9,0.1-6.7-1.8-8.7-5.2c0,0,0,0,0,0c0,0-0.1,0-0.1,0
	c-2.4-5-9.6-7.4-8.1-14.6c0.5-2.5-1.4-2-2.8-2.1c-5.3-0.5-10.6,0.8-15.8-1.1c-0.1,0-0.2,0-0.3,0c-1-0.3-2-0.6-3-0.9
	c0,0,0-0.1,0.1-0.1c-0.1,0-0.1,0-0.2,0c-0.5-0.1-1-0.1-1.5-0.2c-2.8-1-6.3-1.4-6.9-4.8c-0.5-3.1,2.7-4.2,4.6-5.8
	c0.4-0.4,0.6-0.9,0.9-1.3l0,0c-2.6-0.1-5.3-0.1-7.9-0.2c0,0,0-0.1,0.1-0.1c-0.1,0-0.1,0.1-0.2,0.1c-2.9,0.1-6.2,1-6-3.8
	c0,0,0,0,0-0.1c-3.2-3.9-7.1-2.1-10.2-0.5c-10.3,5.1-20.5,10.7-30.1,17.1c-1.7,1.1-3.4,2.2-3.7,4.4h0c3.5-2.9,7.4-1.3,11-0.6
	c14.5,3.1,28.6,7.7,42.4,13.1c15.9,6.2,31.7,13.1,48.1,17.9c20.1,5.9,40.6,10.2,61.3,13.6c22,3.7,43.9,7.5,65.9,11.1
	c10,1.7,19.8,4.2,29.9,5.7c2.5,0.4,5.3,0.6,7.1,2.9c13-10.7,26.9-20.4,40.8-30c8.4-5.9,13.5-14.1,18.5-22.5
	C450.3,506.4,449.7,505.6,447.3,505.4z"/>
<path fill="none" stroke="#000000" stroke-miterlimit="10" d="M420.9,442.9c-3.2-5.2-7.2-10.2-12.8-13.4c0,0,0,0,0,0
	c2,6.2,5.3,11.9,8,17.9C418.5,446.5,422.8,445.9,420.9,442.9z"/>
<path fill="none" stroke="#000000" stroke-miterlimit="10" d="M413.9,454.7c2,0.2,3.6,4.1,5.8,1.3c1.8-2.3,5.1-4.8,2.5-8.6l0,0
	c-2.4,0.6-4.5,2.8-7.2,1.2l0,0c-1.4,1.6-3.1,2.1-5.1,1.6C410,452.8,412.8,453,413.9,454.7z"/>
<path fill="none" stroke="#000000" stroke-miterlimit="10" d="M266.9,420.4c-3.4-1.9-7.6,0.2-11-2c-0.2,1.6,1.1,4.5-0.9,4.7
	c-5.1,0.9-2.5,3.7-2.1,6.1c0.3,2.1,3.3,3.3,2.2,6c0,0,0.1,0.1,0.1,0.1c-0.2,0.6-0.3,1.3-0.5,1.9c1.3,0.7,1.8,3.1,3.8,2.1
	c1.6-0.8,1.5-2.8,1.6-4.4c0.2-2.3-0.4-4.5-1.4-6.6c-0.5-1.2-1.1-2.7-0.1-3.7c1.3-1.4,2.1,0.9,3.4,0.8c0,0,0,0,0,0
	C262.6,422.7,266.1,422.9,266.9,420.4z"/>
<path fill="none" stroke="#000000" stroke-miterlimit="10" d="M255.2,435.3c0,0-0.1-0.1-0.1-0.1c-2.8-4.5-7.4-3.6-11.4-3
	c-3.4,0.6-0.8,3.9-1.7,5.8c4.1,3.5,8.3,3.2,12.7-0.8c0,0,0,0,0,0C254.9,436.6,255,435.9,255.2,435.3z"/>
<path fill="none" stroke="#000000" stroke-miterlimit="10" d="M468.7,431.2c-1.2-1.9-2.6-3.4-4.9-1.9c0.1,0.1,0.2,0.1,0.3,0.2
	c1.4,4.4,3,8.8,4.3,13.3c2,6.7,0.6,8.2-6.3,6.9c-0.7-0.1-1.3-0.2-2-0.3c-1.6,0-3.3,0-4.9,0c0,0.3,0,0.6,0,0.9c0,0,0,0.1,0,0.1
	c1,0.1,2.1,0.2,2.9,1.1c0.1,0,0.1,0,0.2,0c6.4,0.4,12.8,0.9,19.2,1.2c2.6,0.1,4-0.8,2.5-3.6c-2.3-4.3-4.5-8.5-6.8-12.8
	C471,435.2,469.9,433.2,468.7,431.2z"/>
<path fill="none" stroke="#000000" stroke-miterlimit="10" d="M462.1,449.7c6.9,1.3,8.3-0.2,6.3-6.9c-1.3-4.5-2.9-8.9-4.3-13.3
	c-0.1-0.1-0.2-0.1-0.3-0.2c-1.5-1-2.8-2.3-4.7-2.7c0,0,0,0.1,0,0.1c0.1,6.2-0.8,12.3,1.4,18.4c0.6,1.5,0.3,2.9-0.4,4.3
	C460.8,449.5,461.4,449.6,462.1,449.7z"/>
<path fill="none" stroke="#000000" stroke-miterlimit="10" d="M412.1,455.6c0.9,0.5,1.5,0.1,1.8-0.9c-1.1-1.7-3.9-1.9-4-4.5
	c-2.4-1.3-3.7-4.1-6.7-4.7c0,0,0,0-0.1,0c-2.2,1.4-4.7,2.1-7.3,2.4c-2.9,0.3-3.8,1.9-3.8,4.5c0.8,1,2,1.1,3.1,1.3
	C400.9,453.1,406.7,452.6,412.1,455.6z"/>
<path fill="none" stroke="#000000" stroke-miterlimit="10" d="M467.1,420.3c0.3-1.6,1.2-3.1,0.8-4.9c-2.1-10-2.4-20-1.8-30.1
	c-0.1,0.2-0.2,0.5-0.2,0.7c-2.7,8.2-4.3,16.3-3.8,25c0.2,2.9,0.5,6-2,8.4c0,0,0,0,0,0C462.3,420.7,464.8,420.2,467.1,420.3z"/>
<path fill="none" stroke="#000000" stroke-miterlimit="10" d="M407.5,459.5c-3.5-4.5-7.3-5.8-12.3-5.1c0,0,0,0.1-0.1,0.1
	c-3.6,0-7.3-0.3-10.8,1.1c-1.1,0.4-1.9,0.1-2.3-1.1c0.2-0.1,0.4-0.2,0.6-0.3c-0.2,0-0.4,0.1-0.6,0.1c-0.3,0.7-0.5,1.3-0.8,2
	c0,0,0,0.1,0.1,0.1c0.3,0.7,0.7,1.2,0.9,1.9l0,0h0c1.6,3.9,2.7,8.1,5.8,11c-0.1,1.2,0.1,2.2,1,3.1c0.1,0,0.2,0,0.3,0
	c1.6,0,3.4-0.3,2.8,2.5c-0.3,1.3-0.2,2.6,1.2,3.3c-0.1-0.2-0.1-0.3-0.1-0.5c-0.6-2.6,1-4.1,3.2-5.4c3.2-1.8,6.9-2.4,9.7-4.9
	c0.1,0,0.3-0.1,0.4-0.1C411.8,464.3,411.3,464.5,407.5,459.5z"/>
<path fill="none" stroke="#000000" stroke-miterlimit="10" d="M221.2,500c0.9,2.1,0.5,3-1.8,3.4c-1.2,0.1-2.2,0.6-3.3,1l0,0
	c3.4,0.2,6.7-0.1,10-1.1l0,0c2.7-2.4,7.4-1.8,9-5.9c-0.1,0-0.1-0.1-0.2-0.1c-5.3-2.6-9.3-7.4-14.7-9.9c0,0,0,0.1,0,0.1
	C218.5,491.9,219.5,496,221.2,500z"/>
<path fill="none" stroke="#000000" stroke-miterlimit="10" d="M303.3,362.4c-0.3-2.7-0.7-5.5-1.8-8c0,0.1,0,0.3,0,0.4
	c0,5.1-3.2,9.7-2.7,14.9c1.8-1.4,2.3-4.2,2.5-6.1c0.5-1.1,1.4-1,1.6-0.8c0,2,0.2,3.6,0.2,6.7c2.2-3.9,4.8-0.5,6.9-2.5
	c-1.1-1.7-2.2-3.5-3.3-5.2c-0.1-0.2-0.2-0.4-0.4-0.6l0,0C305.8,363,304.3,363.1,303.3,362.4z"/>
<path fill="none" stroke="#000000" stroke-miterlimit="10" d="M290.4,329c-1.7,0-2.3-2.1-3.5-0.8c-1,1.1,0.1,2.1,0.7,3.1
	c4.6,7.6,9.2,15.3,13.8,23c0.1,0.2,0.1,0.3,0.1,0.5c0-0.1,0-0.3,0-0.4c1.1,2.6,1.5,5.4,1.8,8c1,0.7,2.5,0.6,3-1.2c0,0-0.1-0.1,0,0
	c0-0.2-0.2-0.4-0.4-0.6c-3.1-4.3-2.8-8.2-0.8-13.1c3.2-8,6.1-16.1,9.1-24.2c0.5-1.5,2.4-3.9,0.1-4.7c-2.6-0.9-2.7,2.2-3.4,3.9
	c-0.9,2.3-0.5,5.5-3,6.5c-2,0.7-2.4,1.9-2.6,3.3c-0.1,0.4-0.1,0.7-0.3,1.2c-0.2,0.5-0.7,0.7-1.5,0.9c-0.6,0.1-1.1,0-1.6,0
	c-1.8-0.4-2.5-1.8-2.8-3.9c-1.1-7.2-2.5-14.3-3.8-21.5c-0.3-1.9-0.8-3.9-3.3-3.3c-2.5,0.6-2,2.7-1.5,4.5l8.8,28.8
	c0.2,0.7,1.9,4.8,0.2,8.1c-0.6-1.2-0.9-1.8-1.1-2.4c-4.5-11.3-8.9-22.6-13.4-33.8c-0.5-1.4-1-4-3-3.1c-2.4,1-0.1,2.9,0.4,4.1
	C284.9,317.5,287.6,323.1,290.4,329z"/>
</svg>
